<?xml version="1.0" standalone="no"?>
<!DOCTYPE svg PUBLIC "-//W3C//DTD SVG 1.1//EN" "http://www.w3.org/Graphics/SVG/1.1/DTD/svg11.dtd" >
<svg>
<metadata>
Created by FontForge 20110222 at Mon Mar  7 13:17:35 2011
 By www-data
(c) 2002 Typodermic Fonts. All rights reserved. Do not distribute. Report piracy to piracy@typodermic.com
</metadata>
<defs>
<font id="NeuropolXRg-Regular" horiz-adv-x="907" >
  <font-face 
    font-family="Neuropol X Rg"
    font-weight="400"
    font-stretch="normal"
    units-per-em="1000"
    panose-1="2 0 5 3 4 0 0 2 0 4"
    ascent="800"
    descent="-200"
    x-height="488"
    cap-height="643"
    bbox="-116 -205 1658 899"
    underline-thickness="20"
    underline-position="-123"
    unicode-range="U+0020-2122"
  />
    <missing-glyph />
    <glyph glyph-name="copyright" unicode="&#x28;C&#x29;" horiz-adv-x="693" 
d="M307 494q-51 0 -51 -42v-111q0 -42 52 -42h116q21 0 21 -25t-21 -25h-121q-94 0 -94 91v114q0 90 95 90h121q21 0 21 -25t-21 -25h-118zM588 402q0 50 -19 96t-52 81.5t-77 56.5t-95 21q-50 0 -94 -20.5t-77 -55.5t-52.5 -81t-19.5 -98q0 -54 19.5 -101t52.5 -82t77 -55
t94 -20q49 0 93.5 20.5t77.5 55.5t52.5 82t19.5 100zM638 402q0 -62 -23 -118t-62.5 -98t-93 -66.5t-114.5 -24.5q-60 0 -113 24.5t-92.5 66.5t-62 98t-22.5 118q0 63 23 118.5t62.5 97t92.5 65.5t112 24t112.5 -24t93.5 -65.5t63.5 -97t23.5 -118.5z" />
    <glyph glyph-name="registered" unicode="&#x28;R&#x29;" horiz-adv-x="693" 
d="M436 492q0 31 -58 31h-132v-102h139q51 0 51 30v41zM483 451q0 -36 -25 -55.5t-77 -19.5h-49l144 -95q9 -5 9 -17q0 -9 -6.5 -17t-18.5 -8q-1 0 -4 0.5t-8 3.5l-202 136v-110q0 -27 -26 -27q-24 0 -24 27v286q0 14 13 14h163q111 0 111 -78v-40zM588 402q0 50 -18.5 96
t-51 81.5t-77 56.5t-96.5 21q-50 0 -94.5 -20.5t-77.5 -55.5t-52 -81t-19 -98q0 -54 19.5 -101t52.5 -82t77 -55t94 -20q49 0 93.5 20.5t77.5 55.5t52.5 82t19.5 100zM638 402q0 -62 -23 -118t-62.5 -98t-93 -66.5t-114.5 -24.5q-60 0 -113 24.5t-92.5 66.5t-62 98
t-22.5 118q0 63 23 118.5t62.5 97t92.5 65.5t112 24t112.5 -24t93.5 -65.5t63.5 -97t23.5 -118.5z" />
    <glyph glyph-name="space" unicode=" " horiz-adv-x="355" 
 />
    <glyph glyph-name="exclam" unicode="!" horiz-adv-x="270" 
d="M197 50q0 -49 -64 -49q-60 0 -60 49q0 46 60 46q64 0 64 -46zM182 183q0 -39 -49 -39q-47 0 -47 39v421q0 39 47 39q49 0 49 -39v-421z" />
    <glyph glyph-name="quotedbl" unicode="&#x22;" horiz-adv-x="308" 
d="M128 449q0 -40 -44 -40t-44 40v159q0 39 44 39t44 -39v-159zM268 449q0 -40 -44 -40t-44 40v159q0 39 44 39t44 -39v-159z" />
    <glyph glyph-name="numbersign" unicode="#" horiz-adv-x="725" 
d="M261 271h189l30 95h-189zM426 196h-190l-50 -165q-5 -14 -15 -19.5t-21 -5.5q-20 0 -38 13.5t-18 32.5q0 10 1 11l42 133h-85q-35 0 -35 39q0 36 35 36h108l31 95h-97q-35 0 -35 42q0 35 35 35h119l52 167q4 13 15 19t22 6q10 0 20 -3.5t18.5 -9.5t14 -13.5t5.5 -16.5
q0 -2 -0.5 -4l-1.5 -6l-43 -139h187l53 167q8 26 36 26q20 0 38 -13.5t18 -31.5q0 -7 -3 -10l-40 -138h67q36 0 36 -35q0 -42 -36 -42h-91l-30 -95h78q35 0 35 -36q0 -39 -35 -39h-104l-50 -165q-5 -14 -14.5 -19.5t-22.5 -5.5q-20 0 -37 13t-17 33q0 9 1 10z" />
    <glyph glyph-name="dollar" unicode="$" horiz-adv-x="776" 
d="M134 428q0 -64 137 -64h68v199h-96q-109 0 -109 -74v-61zM433 290v-214h79q131 0 131 66v74q0 74 -156 74h-54zM433 0v-25q0 -37 -47 -37t-47 37v25h-265q-35 0 -35 40q0 36 35 36h265v214h-47q-250 0 -250 151v35q0 162 219 162h78v14q0 42 49 42q45 0 45 -42v-288h39
q264 0 264 -161v-50q0 -153 -240 -153h-63z" />
    <glyph glyph-name="percent" unicode="%" horiz-adv-x="974" 
d="M847 202q0 45 -81 45h-57q-92 0 -92 -53v-73q0 -48 93 -48h58q79 0 79 48v81zM349 524q0 43 -80 43h-56q-92 0 -92 -53v-73q0 -50 92 -50h57q79 0 79 50v83zM719 651q11 14 27 14q20 0 36.5 -16.5t16.5 -34.5q0 -16 -9 -25l-524 -585q-5 -8 -13 -10.5t-16 -2.5
q-19 0 -35.5 14.5t-16.5 35.5q0 6 2.5 13t7.5 12zM933 121q0 -121 -180 -121h-31q-187 0 -187 121v71q0 126 191 126h27q180 0 180 -125v-72zM437 443q0 -122 -182 -122h-31q-186 0 -186 122v69q0 126 190 126h27q182 0 182 -125v-70z" />
    <glyph glyph-name="ampersand" unicode="&#x26;" horiz-adv-x="898" 
d="M318 563q-105 0 -105 -49v-42q0 -24 38 -47l88 -54l188 62q37 12 37 38v39q0 53 -98 53h-148zM545 76q60 0 95 19l-310 190l-23 -8q-85 -26 -122 -49t-37 -46v-51q0 -55 147 -55h250zM719 47q-68 -47 -192 -47h-217q-257 0 -257 142v27q0 34 11 58t33.5 43t57.5 35t84 34
l-67 41q-26 16 -38.5 42.5t-12.5 60.5v19q0 136 216 136h116q206 0 206 -135v-18q0 -48 -21 -77.5t-72 -46.5l-137 -45l269 -164q20 43 20 92v52q0 39 44 39q47 0 47 -38v-51q0 -89 -34 -141l63 -37q11 -7 15 -14t4 -15q0 -17 -13 -30.5t-30 -13.5q-12 0 -22 9z" />
    <glyph glyph-name="quotesingle" unicode="'" horiz-adv-x="168" 
d="M128 449q0 -40 -43 -40q-45 0 -45 40v159q0 39 44 39t44 -39v-159z" />
    <glyph glyph-name="parenleft" unicode="(" horiz-adv-x="317" 
d="M257 621q-70 0 -70 -42v-505q0 -57 70 -57q35 0 35 -38q0 -39 -35 -39h-12q-154 0 -154 132v507q0 120 148 120h18q35 0 35 -38q0 -40 -35 -40z" />
    <glyph glyph-name="parenright" unicode=")" horiz-adv-x="317" 
d="M62 621q-36 0 -36 40q0 38 36 38h16q147 0 147 -120v-507q0 -132 -152 -132h-11q-36 0 -36 39q0 38 35 38q70 0 70 57v505q0 42 -69 42z" />
    <glyph glyph-name="asterisk" unicode="*" horiz-adv-x="515" 
d="M190 457l39 9l-39 7l-112 34q-24 7 -24 35q0 12 5 24.5t13.5 23t18.5 17t21 6.5t22 -11l83 -79l28 -32l-15 33q-14 60 -19.5 88t-6.5 32q0 23 17 33t40 10t39.5 -10t16.5 -27q0 -2 -0.5 -5t-0.5 -7l-27 -109l-14 -38l25 30l83 78q11 11 21 11q12 0 22.5 -6.5t19 -17
t13.5 -23.5t5 -26q0 -11 -5 -20t-18 -14l-113 -31l-37 -6l36 -5l112 -35q12 -4 18.5 -13.5t6.5 -21.5q0 -14 -5.5 -26.5t-14.5 -22.5t-20.5 -16t-22.5 -6q-8 0 -17 9l-84 80l-25 31l14 -40l27 -115v-11q0 -17 -16 -25t-36 -8q-23 0 -42.5 9t-19.5 28v5q0 -1 2 5l26 111
l15 41l-25 -31l-86 -80q-11 -9 -23 -9q-10 0 -20.5 6.5t-19 17t-14 23t-5.5 24.5q0 24 26 35z" />
    <glyph glyph-name="plus" unicode="+" horiz-adv-x="411" 
d="M382 319q0 -38 -32 -38h-101v-66q0 -38 -42 -38q-47 0 -47 38v66h-97q-34 0 -34 38q0 36 34 36h95v64q0 38 46 38q45 0 45 -38v-64h101q32 0 32 -36z" />
    <glyph glyph-name="comma" unicode="," horiz-adv-x="172" 
d="M111 -59q-6 -19 -20 -28t-28 -9q-17 0 -27 10.5t-10 24.5q0 1 0.5 1.5t0.5 2.5l29 156q4 20 20 31.5t33 11.5q19 0 30.5 -10t11.5 -27q0 -8 -1 -10z" />
    <glyph glyph-name="hyphen" unicode="-" horiz-adv-x="431" 
d="M50 231q-38 0 -38 34q0 36 38 36h336q33 0 33 -34q0 -36 -33 -36h-336z" />
    <glyph glyph-name="period" unicode="." horiz-adv-x="213" 
d="M168 50q0 -49 -61 -49t-61 49q0 46 61 46t61 -46z" />
    <glyph glyph-name="slash" unicode="/" horiz-adv-x="677" 
d="M83 -1q-14 -11 -24 -11q-17 0 -31.5 13.5t-14.5 30.5q0 8 3.5 14t10.5 15l557 575q13 13 31 13q17 0 33 -12.5t16 -30.5q0 -17 -14 -31z" />
    <glyph glyph-name="zero" unicode="0" horiz-adv-x="850" 
d="M699 461q0 102 -138 102h-272q-139 0 -139 -102v-299q0 -86 139 -86h272q138 0 138 87v298zM795 190q0 -190 -259 -190h-222q-259 0 -259 174v275q0 189 261 189h221q258 0 258 -189v-259z" />
    <glyph glyph-name="one" unicode="1" horiz-adv-x="223" 
d="M159 36q0 -41 -49 -41q-46 0 -46 41v568q0 39 46 39q49 0 49 -39v-568z" />
    <glyph glyph-name="two" unicode="2" horiz-adv-x="884" 
d="M838 439q0 -161 -228 -161h-309q-154 0 -154 -73v-129h656q35 0 35 -37q0 -39 -35 -39h-719q-31 0 -31 32v171q0 152 264 152h304q121 0 121 71v66q0 71 -114 71h-160q-38 0 -38 38q0 37 38 37h147q223 0 223 -158v-41z" />
    <glyph glyph-name="three" unicode="3" horiz-adv-x="797" 
d="M750 454q0 -91 -101 -124q101 -32 101 -129v-37q0 -164 -259 -164h-415q-39 0 -39 39q0 37 39 37h432q144 0 144 82v63q-6 65 -140 65h-436q-40 0 -40 39t40 39h436q140 0 140 70v61q0 68 -142 68h-124q-39 0 -39 38q0 37 39 37h98q266 0 266 -147v-37z" />
    <glyph glyph-name="four" unicode="4" horiz-adv-x="896" 
d="M832 36q0 -41 -48 -41q-47 0 -47 41v131h-632q-50 0 -50 53v384q0 39 48 39q46 0 46 -39v-344h588v344q0 39 47 39q48 0 48 -39v-568z" />
    <glyph glyph-name="five" unicode="5" 
d="M854 155q0 -155 -273 -155h-496q-37 0 -37 39q0 37 37 37h503q171 0 171 79v96q0 88 -138 88h-536q-30 0 -30 31v238q0 30 30 30h376q38 0 38 -37q0 -38 -38 -38h-312v-149h455q250 0 250 -163v-96z" />
    <glyph glyph-name="six" unicode="6" horiz-adv-x="916" 
d="M774 256q0 84 -157 84h-466v-173q0 -91 154 -91h333q136 0 136 80v100zM868 155q0 -155 -246 -155h-303q-264 0 -264 152v329q0 157 305 157h89q38 0 38 -37q0 -38 -38 -38h-130q-168 0 -168 -94v-51h449q268 0 268 -160v-103z" />
    <glyph glyph-name="seven" unicode="7" horiz-adv-x="821" 
d="M349 15q-13 -16 -30 -16q-18 0 -31 15t-13 32q0 13 12 28l392 489h-625q-37 0 -37 41q0 34 37 34h690q29 0 42 -12.5t13 -31.5q-1 -9 -3.5 -18.5t-8.5 -17.5z" />
    <glyph glyph-name="eight" unicode="8" horiz-adv-x="911" 
d="M749 495q0 68 -135 68h-317q-135 0 -135 -68v-69q0 -61 131 -61h321q135 0 135 61v69zM761 211q0 75 -148 75h-316q-149 0 -149 -75v-73q0 -62 149 -62h316q148 0 148 63v72zM857 156q0 -156 -259 -156h-285q-258 0 -258 153v47q0 89 113 127q-101 32 -101 106v49
q0 156 260 156h256q259 0 259 -157v-49q0 -72 -99 -105q114 -35 114 -127v-44z" />
    <glyph glyph-name="nine" unicode="9" horiz-adv-x="866" 
d="M719 301v171q0 91 -152 91h-294q-129 0 -129 -80v-100q0 -82 157 -82h418zM811 159q0 -159 -250 -159h-111q-41 0 -41 39q0 37 41 37h94q175 0 175 91v55h-402q-269 0 -269 159v105q0 152 246 152h256q261 0 261 -180v-299z" />
    <glyph glyph-name="colon" unicode=":" horiz-adv-x="213" 
d="M168 52q0 -47 -61 -47t-61 47q0 46 59 46q63 0 63 -46zM168 305q0 -47 -61 -47t-61 47t59 47q63 0 63 -47z" />
    <glyph glyph-name="semicolon" unicode=";" horiz-adv-x="196" 
d="M164 304q0 -48 -61 -48t-61 48q0 47 60 47q62 0 62 -47zM111 -59q-5 -19 -19.5 -28t-28.5 -9q-16 0 -26.5 10.5t-10.5 23.5q0 4 1 5l28 156q5 20 21 31.5t33 11.5q19 0 31 -9t12 -26v-7q0 -3 -2 -5z" />
    <glyph glyph-name="less" unicode="&#x3c;" horiz-adv-x="459" 
d="M358 462q9 5 21 5q22 0 35 -13.5t13 -30.5q0 -23 -28 -36l-232 -106l235 -109q14 -5 21 -15.5t7 -21.5q0 -20 -12.5 -34t-32.5 -14q-5 0 -10 1t-12 5l-310 153q-12 6 -18 14t-6 22q0 27 25 36z" />
    <glyph glyph-name="equal" unicode="=" horiz-adv-x="469" 
d="M64 168q-35 0 -35 37q0 33 35 33h338q32 0 32 -35t-32 -35h-338zM64 330q-35 0 -35 37q0 33 35 33h338q38 0 38 -37q0 -33 -38 -33h-338z" />
    <glyph glyph-name="greater" unicode="&#x3e;" horiz-adv-x="459" 
d="M100 95q-9 -6 -22 -6q-18 0 -31.5 14t-13.5 31q0 25 27 35l233 108l-236 108q-28 10 -28 39q0 17 13 32t31 15q12 -2 22 -6l312 -153q23 -12 23 -37q0 -26 -23 -37z" />
    <glyph glyph-name="question" unicode="?" horiz-adv-x="572" 
d="M162 52q0 -47 -64 -47q-59 0 -59 47q0 46 59 46q64 0 64 -46zM528 408q0 -152 -246 -152h-87q-48 0 -48 -42v-21q0 -46 -47 -46q-42 0 -42 46v20q0 119 147 119h96q139 0 139 64v85q0 82 -139 82h-43q-35 0 -35 37q0 38 35 38h26q244 0 244 -169v-61z" />
    <glyph glyph-name="at" unicode="@" horiz-adv-x="751" 
d="M299 262q0 -24 66 -24h68v166h-71q-63 0 -63 -27v-115zM696 271q0 -112 -119 -112h-210q-152 0 -152 102v114q0 102 150 102h123q28 0 28 -30v-209h60q32 0 32 33v254q0 38 -71 38h-309q-87 0 -89 -62l1 -354q0 -71 92 -71h57q39 0 39 -33q0 -43 -39 -43h-37
q-197 0 -197 147v354q0 137 172 137h310q159 0 159 -128v-239z" />
    <glyph glyph-name="A" unicode="A" 
d="M259 251h386l-191 306zM698 174h-490l-106 -158q-8 -11 -17.5 -16t-15.5 -5q-21 0 -36 12t-15 32q0 11 7 24l366 549q11 17 28 25t34 8q36 0 59 -33l369 -549q6 -6 7.5 -12.5t1.5 -11.5q0 -20 -14 -31t-34 -11q-9 0 -20 5t-19 15z" />
    <glyph glyph-name="B" unicode="B" horiz-adv-x="868" 
d="M163 563v-208h406q135 0 135 70v64q0 74 -126 74h-415zM158 76h440q128 0 128 66v61q0 75 -156 75h-412v-202zM801 442q0 -87 -92 -122q113 -35 113 -133v-32q0 -155 -224 -155h-504q-30 0 -30 32v576q0 30 30 30h482q225 0 225 -163v-33z" />
    <glyph glyph-name="C" unicode="C" horiz-adv-x="759" 
d="M309 563q-160 0 -160 -75v-325q0 -87 176 -87h350q35 0 35 -37q0 -39 -35 -39h-363q-257 0 -257 160v328q0 150 251 150h369q35 0 35 -37q0 -38 -35 -38h-366z" />
    <glyph glyph-name="D" unicode="D" horiz-adv-x="883" 
d="M734 481q0 82 -153 82h-421v-487h418q156 0 156 91v314zM828 167q0 -167 -247 -167h-486q-31 0 -31 32v576q0 30 31 30h487q246 0 246 -157v-314z" />
    <glyph glyph-name="E" unicode="E" horiz-adv-x="799" 
d="M151 355h562q33 0 33 -39q0 -38 -33 -38h-562v-120q0 -82 155 -82h407q35 0 35 -37q0 -39 -35 -39h-410q-248 0 -248 154v327q0 157 257 157h111q33 0 33 -38q0 -37 -33 -37h-75q-197 0 -197 -82v-126z" />
    <glyph glyph-name="F" unicode="F" horiz-adv-x="765" 
d="M151 278v-242q0 -41 -47 -41q-49 0 -49 41v443q0 159 250 159h85q38 0 38 -35q0 -40 -38 -40h-75q-164 0 -164 -83v-125h558q37 0 37 -37q0 -40 -37 -40h-558z" />
    <glyph glyph-name="G" unicode="G" horiz-adv-x="871" 
d="M810 156q0 -156 -237 -156h-259q-259 0 -259 155v331q0 152 261 152h102q34 0 34 -37q0 -38 -34 -38h-73q-194 0 -194 -77v-331q0 -79 165 -79h257q141 0 141 77v171q0 38 48 38t48 -38v-168z" />
    <glyph glyph-name="H" unicode="H" horiz-adv-x="892" 
d="M828 36q0 -41 -48 -41q-46 0 -46 41v242h-574v-242q0 -41 -49 -41q-47 0 -47 41v568q0 39 49 39q47 0 47 -39v-249h574v249q0 39 45 39q49 0 49 -39v-568z" />
    <glyph glyph-name="I" unicode="I" horiz-adv-x="242" 
d="M169 36q0 -40 -48 -40t-48 40v568q0 39 50 39q46 0 46 -39v-568z" />
    <glyph glyph-name="J" unicode="J" horiz-adv-x="395" 
d="M335 183q0 -183 -242 -183h-54q-39 0 -39 39q0 37 39 37h54q146 0 146 101v427q0 39 48 39t48 -39v-421z" />
    <glyph glyph-name="K" unicode="K" horiz-adv-x="765" 
d="M242 326l473 -252q11 -6 17 -16t6 -19q0 -17 -12 -30t-29 -13q-10 0 -24 8l-505 275v-243q0 -41 -46 -41q-47 0 -47 41v568q0 39 48 39q45 0 45 -39v-236l482 268q7 5 13 6t12 1q19 0 32 -13t13 -29q0 -8 -4.5 -17t-16.5 -15z" />
    <glyph glyph-name="L" unicode="L" horiz-adv-x="771" 
d="M355 0q-295 0 -295 164v440q0 39 47 39q48 0 48 -39v-440q0 -88 196 -88h372q36 0 36 -40q0 -36 -36 -36h-368z" />
    <glyph glyph-name="M" unicode="M" horiz-adv-x="1167" 
d="M1102 36q0 -41 -49 -41q-45 0 -45 41v465l-357 -472q-25 -34 -64 -34q-42 0 -67 34l-363 471v-464q0 -41 -46 -41q-47 0 -47 41v553q0 54 53 54q37 0 63 -33l408 -521l400 526q22 28 58 28q56 0 56 -56v-551z" />
    <glyph glyph-name="N" unicode="N" horiz-adv-x="888" 
d="M823 59q0 -32 -17.5 -48t-40.5 -16q-10 0 -21.5 4t-22.5 15l-564 504v-482q0 -41 -47 -41q-46 0 -46 41v547q0 30 18 43.5t40 13.5q14 0 26 -3.5t23 -14.5l559 -494v476q0 39 48 39q45 0 45 -39v-545z" />
    <glyph glyph-name="O" unicode="O" horiz-adv-x="850" 
d="M700 467q0 96 -155 96h-229q-165 0 -165 -96v-299q0 -92 165 -92h223q161 0 161 92v299zM795 167q0 -167 -282 -167h-177q-281 0 -281 166v306q0 166 281 166h177q282 0 282 -166v-305z" />
    <glyph glyph-name="P" unicode="P" horiz-adv-x="870" 
d="M733 488q0 75 -148 75h-425v-250h419q154 0 154 77v98zM827 385q0 -150 -259 -150h-408v-199q0 -41 -49 -41q-47 0 -47 41v572q0 30 31 30h476q256 0 256 -142v-111z" />
    <glyph glyph-name="Q" unicode="Q" horiz-adv-x="869" 
d="M719 479q0 84 -180 84h-212q-176 0 -176 -84v-315q0 -88 176 -88h254q138 0 138 87v316zM814 166q0 -108 -115 -148l49 -27q8 -5 13.5 -15.5t5.5 -18.5q0 -17 -13 -28t-30 -11q-10 0 -23 7l-133 78h-268q-245 0 -245 163v311q0 161 244 161h266q249 0 249 -160v-312z" />
    <glyph glyph-name="R" unicode="R" horiz-adv-x="866" 
d="M727 480q0 83 -157 83h-410v-234h427q140 0 140 68v83zM821 406q0 -153 -243 -153h-233l403 -177q25 -12 25 -34q0 -17 -11.5 -32t-30.5 -15q-9 0 -18 6l-553 258v-223q0 -41 -47 -41q-49 0 -49 41v572q0 30 31 30h461q265 0 265 -163v-69z" />
    <glyph glyph-name="S" unicode="S" horiz-adv-x="801" 
d="M741 147q0 -147 -240 -147h-424q-35 0 -35 40q0 36 35 36h437q131 0 131 76v55q0 83 -156 83h-193q-249 0 -249 134v64q0 150 218 150h106q36 0 36 -38q0 -37 -36 -37h-121q-108 0 -108 -81v-49q0 -69 139 -69h196q264 0 264 -149v-68z" />
    <glyph glyph-name="T" unicode="T" horiz-adv-x="703" 
d="M399 563v-527q0 -41 -48 -41q-47 0 -47 41v527h-263q-35 0 -35 40q0 35 35 35h620q35 0 35 -35q0 -40 -35 -40h-262z" />
    <glyph glyph-name="U" unicode="U" horiz-adv-x="875" 
d="M815 176q0 -176 -315 -176h-143q-297 0 -297 176v428q0 39 46 39q49 0 49 -39v-421q0 -107 188 -107h173q205 0 205 107v421q0 39 47 39t47 -39v-428z" />
    <glyph glyph-name="V" unicode="V" horiz-adv-x="904" 
d="M455 81l345 539q15 22 39 22q19 0 33.5 -12.5t14.5 -30.5q-1 -5 -2.5 -11.5t-4.5 -11.5l-366 -545q-11 -17 -27.5 -26.5t-33.5 -9.5q-38 0 -61 35l-365 545q-9 12 -9 25q0 18 14.5 30t33.5 12q9 -1 19.5 -5.5t18.5 -15.5z" />
    <glyph glyph-name="W" unicode="W" horiz-adv-x="1197" 
d="M602 523l-215 -488q-8 -17 -23.5 -27t-35.5 -10q-19 0 -35 10t-25 30l-248 545q-1 4 -1.5 8t-0.5 9q0 19 15.5 30.5t34.5 11.5q29 0 39 -25l223 -513l209 495q9 21 25.5 31t36.5 10q17 0 32.5 -9.5t23.5 -26.5l214 -500l217 513q11 26 42 26q17 0 33 -12.5t16 -30.5
q0 -8 -3 -18l-249 -543q-8 -20 -24.5 -30.5t-35.5 -10.5q-17 0 -34.5 9.5t-25.5 29.5z" />
    <glyph glyph-name="X" unicode="X" horiz-adv-x="799" 
d="M461 320l291 -252q15 -14 15 -30q0 -17 -12.5 -29t-31.5 -12q-16 0 -32 13l-294 253l-289 -252q-17 -14 -33 -14q-17 0 -31 12.5t-14 29.5q0 15 18 30l287 251l-289 253q-17 14 -17 31q0 16 13.5 27.5t31.5 11.5q16 0 32 -13l291 -256l292 255q17 14 32 14q19 0 32 -12
t13 -28t-16 -31z" />
    <glyph glyph-name="Y" unicode="Y" horiz-adv-x="763" 
d="M381 345l282 283q13 13 33 13q18 0 33.5 -12.5t15.5 -28.5q0 -6 -2.5 -13t-9.5 -13l-303 -304l-1 -235q-4 -40 -47 -40q-47 0 -47 41v234l-304 304q-13 13 -13 26q0 16 14.5 28t33.5 12q17 0 32 -12z" />
    <glyph glyph-name="Z" unicode="Z" horiz-adv-x="755" 
d="M587 563h-516q-34 0 -34 40q0 35 34 35h606q20 0 32.5 -14.5t12.5 -31.5q0 -19 -14 -30l-556 -486h535q35 0 35 -37q0 -39 -35 -39h-603q-26 0 -42 16t-16 36q0 9 4 18t13 17z" />
    <glyph glyph-name="bracketleft" unicode="[" horiz-adv-x="289" 
d="M173 621v-604h56q39 0 39 -38q0 -39 -39 -39h-113q-14 0 -22 6t-8 26v695q0 20 6.5 26t23.5 6h115q37 0 37 -37q0 -41 -37 -41h-58z" />
    <glyph glyph-name="backslash" unicode="\" horiz-adv-x="678" 
d="M28 577q-15 15 -15 28q0 21 12.5 34.5t33.5 13.5q18 0 34 -16l558 -575q14 -14 14 -33q0 -17 -12 -29.5t-29 -12.5q-18 0 -31 15z" />
    <glyph glyph-name="bracketright" unicode="]" horiz-adv-x="308" 
d="M26 -21q0 38 39 38h56v604h-59q-36 0 -36 41q0 37 36 37h116q16 0 22.5 -6t6.5 -26v-695q0 -20 -7.5 -26t-21.5 -6h-113q-39 0 -39 39z" />
    <glyph glyph-name="asciicircum" unicode="^" horiz-adv-x="404" 
d="M364 633q10 -10 10 -19q0 -14 -10.5 -23t-23.5 -9q-6 0 -13 3t-12 9l-113 118l-112 -118q-9 -12 -22 -12q-14 0 -26 10t-12 23q0 8 10 17l129 137q16 16 33 16q8 -1 16.5 -4.5t16.5 -11.5z" />
    <glyph glyph-name="underscore" unicode="_" horiz-adv-x="741" 
d="M27 -170q-43 0 -43 49q0 44 43 44h685q42 0 42 -46q0 -47 -42 -47h-685z" />
    <glyph glyph-name="grave" unicode="`" horiz-adv-x="222" 
d="M24 684q-10 10 -10 22q0 11 9 21t20 10q13 0 24 -11l132 -140q9 -11 9 -22q0 -12 -9 -21.5t-20 -9.5q-6 0 -12 2t-12 9z" />
    <glyph glyph-name="a" unicode="a" horiz-adv-x="790" 
d="M651 269h-408q-104 0 -104 -66v-67q0 -62 111 -62h294q107 0 107 94v101zM736 143q0 -143 -208 -143h-260q-219 0 -219 137v64q0 142 214 142h387q-9 72 -108 72h-108q-32 0 -32 38q0 35 32 35h94q208 0 208 -146v-199z" />
    <glyph glyph-name="b" unicode="b" horiz-adv-x="773" 
d="M630 334q0 81 -140 81h-342v-268q0 -73 146 -73h213q63 0 93 19.5t30 59.5v181zM719 151q0 -151 -244 -151h-164q-251 0 -251 147v457q0 39 44 39t44 -39v-116h327q244 0 244 -150v-187z" />
    <glyph glyph-name="c" unicode="c" horiz-adv-x="694" 
d="M296 0q-241 0 -241 144v201q0 143 219 143h327q41 0 41 -35q0 -38 -41 -38h-339q-118 0 -118 -68v-199q0 -74 136 -74h321q37 0 37 -39q0 -35 -37 -35h-305z" />
    <glyph glyph-name="d" unicode="d" horiz-adv-x="773" 
d="M626 414h-346q-136 0 -136 -86v-175q0 -79 130 -79h205q147 0 147 79v261zM714 143q0 -143 -249 -143h-166q-244 0 -244 134v205q0 149 244 149h327v116q0 39 43 39q45 0 45 -39v-461z" />
    <glyph glyph-name="e" unicode="e" horiz-adv-x="753" 
d="M144 277h477v72q0 66 -103 66h-238q-136 0 -136 -70v-68zM707 241q0 -40 -40 -40h-523v-61q0 -66 136 -66h97q38 0 38 -36q0 -38 -38 -38h-74q-248 0 -248 151v188q0 149 245 149h200q207 0 207 -130v-117z" />
    <glyph glyph-name="f" unicode="f" horiz-adv-x="368" 
d="M247 564q-100 0 -101 -76h176q32 0 32 -35q0 -38 -32 -38h-176v-380q0 -40 -43 -40t-43 40v453q0 147 206 147h54q34 0 34 -36q0 -35 -33 -35h-74z" />
    <glyph glyph-name="g" unicode="g" horiz-adv-x="765" 
d="M616 74v260q0 81 -141 81h-200q-131 0 -131 -73v-194q0 -74 152 -74h320zM707 7q0 -146 -242 -146h-74q-39 0 -39 36t39 36h85q143 0 143 61v6h-305q-259 0 -259 147v193q0 148 236 148h159q257 0 257 -149v-332z" />
    <glyph glyph-name="h" unicode="h" horiz-adv-x="775" 
d="M716 35q0 -40 -45 -40t-45 40v297q0 83 -149 83h-324v-380q0 -40 -45 -40q-44 0 -44 40v569q0 39 44 39q45 0 45 -39v-116h296q267 0 267 -154v-299z" />
    <glyph glyph-name="i" unicode="i" horiz-adv-x="223" 
d="M170 558q0 -46 -62 -46q-58 0 -58 46q0 47 58 47q62 0 62 -47zM155 35q0 -40 -44 -40q-42 0 -42 40v387q0 38 40 38q46 0 46 -38v-387z" />
    <glyph glyph-name="j" unicode="j" horiz-adv-x="254" 
d="M205 561q0 -48 -60 -48t-60 48q0 46 60 46t60 -46zM190 38q0 -144 -198 -144h-70q-38 0 -38 35q0 38 38 38h75q104 0 104 62v393q0 38 44 38q45 0 45 -38v-384z" />
    <glyph glyph-name="k" unicode="k" horiz-adv-x="633" 
d="M218 252l366 -184q9 -5 14.5 -14t5.5 -15q0 -17 -13.5 -30.5t-30.5 -13.5q-9 0 -21 6l-387 200v-166q0 -40 -43 -40q-45 0 -45 40v569q0 39 45 39q43 0 43 -39v-304l394 189q8 5 16 5q16 0 29 -13t13 -27q0 -8 -5.5 -16.5t-16.5 -13.5z" />
    <glyph glyph-name="l" unicode="l" horiz-adv-x="216" 
d="M153 35q0 -40 -44 -40q-45 0 -45 40v569q0 39 44 39q45 0 45 -39v-569z" />
    <glyph glyph-name="m" unicode="m" horiz-adv-x="1018" 
d="M958 35q0 -40 -45 -40q-44 0 -44 40v310q0 70 -144 70q-171 0 -171 -83v-297q0 -40 -43 -40q-46 0 -46 40v297q0 83 -171 83q-146 0 -146 -70v-310q0 -40 -45 -40q-43 0 -43 40v299q0 154 234 154q174 0 218 -80q47 80 213 80q233 0 233 -154v-299z" />
    <glyph glyph-name="n" unicode="n" horiz-adv-x="763" 
d="M704 35q0 -40 -45 -40t-45 40v320q0 60 -121 60h-223q-122 0 -122 -60v-320q0 -40 -44 -40t-44 40v320q0 133 235 133h172q237 0 237 -133v-320z" />
    <glyph glyph-name="o" unicode="o" horiz-adv-x="754" 
d="M608 345q0 70 -125 70h-203q-136 0 -136 -78v-189q0 -74 136 -74h203q125 0 125 74v197zM699 148q0 -148 -230 -148h-179q-235 0 -235 148v189q0 151 238 151h176q230 0 230 -150v-190z" />
    <glyph glyph-name="p" unicode="p" horiz-adv-x="765" 
d="M621 347q0 68 -142 68h-195q-136 0 -136 -70v-271h356q117 0 117 72v201zM711 147q0 -147 -222 -147h-341v-110q0 -41 -45 -41q-43 0 -43 41v457q0 141 234 141h171q246 0 246 -139v-202z" />
    <glyph glyph-name="q" unicode="q" horiz-adv-x="765" 
d="M144 146q0 -72 116 -72h357v271q0 70 -134 70h-198q-141 0 -141 -68v-201zM55 349q0 139 247 139h169q236 0 236 -141v-457q0 -41 -45 -41t-45 41v110h-342q-220 0 -220 147v202z" />
    <glyph glyph-name="r" unicode="r" horiz-adv-x="379" 
d="M276 415q-127 0 -127 -75v-305q0 -40 -45 -40q-44 0 -44 40v305q0 148 225 148h41q33 0 33 -36q0 -37 -28 -37h-55z" />
    <glyph glyph-name="s" unicode="s" horiz-adv-x="692" 
d="M650 130q0 -130 -186 -130h-378q-39 0 -39 36q0 38 39 38h393q80 0 80 56v29q0 54 -90 54h-210q-206 0 -206 124v32q0 119 196 119h104q39 0 39 -36q0 -37 -39 -37h-125q-87 0 -87 -46v-30q0 -54 103 -54h214q192 0 192 -126v-29z" />
    <glyph glyph-name="t" unicode="t" horiz-adv-x="417" 
d="M186 415v-380q0 -40 -43 -40q-45 0 -45 40v380h-44q-37 0 -37 38q0 35 37 35h44v116q0 39 46 39q42 0 42 -39v-116h177q37 0 37 -36q0 -37 -37 -37h-177z" />
    <glyph glyph-name="u" unicode="u" horiz-adv-x="771" 
d="M712 142q0 -142 -248 -142h-154q-250 0 -250 142v316q0 38 43 38q44 0 44 -38v-316q0 -68 148 -68h183q144 0 144 66v318q0 37 46 37q44 0 44 -37v-316z" />
    <glyph glyph-name="v" unicode="v" horiz-adv-x="783" 
d="M423 16q-17 -21 -35 -21q-9 -1 -16 4t-15 15l-330 423q-9 9 -9 24q0 16 13.5 27.5t30.5 11.5q18 0 31 -16l297 -388l296 390q10 12 28 12q17 0 34 -10.5t17 -26.5q0 -11 -10 -24z" />
    <glyph glyph-name="w" unicode="w" horiz-adv-x="985" 
d="M770 27q-8 -17 -24 -24.5t-34 -7.5q-17 0 -33 8t-21 22l-165 357l-167 -357q-8 -15 -24.5 -23t-33.5 -8q-19 0 -34.5 8t-23.5 24l-188 406q-4 8 -4 18q0 20 14.5 32t31.5 12q9 0 19 -5.5t15 -16.5l173 -372l169 357q8 17 22 24.5t29 7.5q17 0 32 -7t22 -24l169 -358
l171 372q8 17 31 17q17 0 34 -11t17 -28q0 -8 -4 -15z" />
    <glyph glyph-name="x" unicode="x" horiz-adv-x="686" 
d="M343 295l245 187q14 11 28 11q18 0 30.5 -13.5t12.5 -30.5t-18 -30l-230 -175l230 -177q14 -11 14 -27q0 -17 -11.5 -32t-27.5 -15q-10 0 -23 11l-250 188l-249 -188q-10 -10 -23 -10q-16 0 -27.5 14.5t-11.5 31.5q0 15 14 27l229 177l-229 175q-9 7 -14 13.5t-4 16.5
q0 19 12.5 30.5t29.5 11.5q6 0 14.5 -2t14.5 -7z" />
    <glyph glyph-name="y" unicode="y" horiz-adv-x="770" 
d="M707 -5q0 -134 -203 -134h-111q-34 0 -34 37q0 35 34 35h119q107 0 107 62v5h-327q-232 0 -232 142v316q0 37 44 37t44 -37v-316q0 -68 127 -68h344v384q0 37 43 37q45 0 45 -37v-463z" />
    <glyph glyph-name="z" unicode="z" horiz-adv-x="736" 
d="M536 415h-447q-37 0 -37 37q0 36 37 36h531q25 0 39.5 -14t14.5 -31q0 -26 -25 -42l-479 -327h492q36 0 36 -36q0 -38 -36 -38h-576q-24 0 -40 13.5t-16 32.5q0 13 7.5 22t21.5 19z" />
    <glyph glyph-name="braceleft" unicode="{" horiz-adv-x="278" 
d="M211 -60q-112 0 -112 68v255q0 19 -10 19q-40 0 -40 41q0 39 40 39q10 0 10 16v253q0 68 117 68h11q39 0 39 -40q0 -38 -39 -38h-30q-18 0 -18 -13v-223q0 -39 -50 -65q50 -29 50 -67v-232q0 -4 18 -4h25q36 0 36 -38q0 -39 -36 -39h-11z" />
    <glyph glyph-name="bar" unicode="|" horiz-adv-x="334" 
d="M214 -113q0 -47 -50 -47q-45 0 -45 47v777q0 39 49 39q46 0 46 -39v-777z" />
    <glyph glyph-name="braceright" unicode="}" horiz-adv-x="278" 
d="M58 -60q-35 0 -35 39q0 38 35 38h27q16 0 16 4v232q0 42 52 67q-52 24 -52 65v223q0 13 -16 13h-31q-39 0 -39 38q0 40 39 40h10q116 0 116 -68v-253q0 -16 12 -16q40 0 40 -39q0 -41 -40 -41q-12 0 -12 -19v-255q0 -68 -110 -68h-12z" />
    <glyph glyph-name="asciitilde" unicode="~" horiz-adv-x="720" 
d="M678 426q0 -129 -190 -129q-157 0 -172 118q-12 60 -54 60h-56q-75 0 -75 -57q0 -42 -43 -42q-47 0 -47 48q0 124 191 124q157 0 172 -117q12 -59 53 -59h58q74 0 74 54q0 41 42 41q47 0 47 -41z" />
    <glyph glyph-name="exclamdown" unicode="&#xa1;" horiz-adv-x="270" 
d="M197 400q0 -46 -63 -46q-61 0 -61 46q0 48 61 48q63 0 63 -48zM183 -163q0 -42 -50 -42q-46 0 -46 42v428q0 42 47 42q49 0 49 -42v-428z" />
    <glyph glyph-name="cent" unicode="&#xa2;" horiz-adv-x="799" 
d="M144 238q0 -77 138 -77h99v350h-116q-121 0 -121 -69v-204zM469 586h239q41 0 41 -38q0 -37 -41 -37h-239v-350h239q39 0 39 -40q0 -34 -39 -34h-239v-55q0 -40 -43 -40q-45 0 -45 40v55h-82q-244 0 -244 146v207q0 146 223 146h103v22q0 39 43 39q45 0 45 -39v-22z" />
    <glyph glyph-name="sterling" unicode="&#xa3;" horiz-adv-x="797" 
d="M151 278v-203h558q37 0 37 -35q0 -41 -37 -41l-605 1q-49 0 -49 43v436q0 159 250 159h85q38 0 38 -35q0 -40 -38 -40h-75q-164 0 -164 -83v-125h355q37 0 37 -37q0 -40 -37 -40h-355z" />
    <glyph glyph-name="yen" unicode="&#xa5;" horiz-adv-x="799" 
d="M432 217v-50h122q33 0 33 -35t-33 -35h-122v-62q-3 -40 -46 -40q-47 0 -47 41v61h-124q-33 0 -33 36q0 34 33 34h124v50h-124q-33 0 -33 38q0 33 33 33h105l-285 286q-11 14 -11 26q0 16 14 28.5t33 12.5q8 0 16 -2.5t14 -10.5l284 -283l283 283q12 13 31 13
q20 0 35 -12.5t15 -28.5q0 -12 -11 -26l-286 -286h102q38 0 38 -36q0 -35 -38 -35h-122z" />
    <glyph glyph-name="brokenbar" unicode="&#xa6;" horiz-adv-x="335" 
d="M215 -113q0 -47 -50 -47q-46 0 -46 47v271q0 39 49 39q47 0 47 -39v-271zM215 379q0 -46 -50 -46q-46 0 -46 46v285q0 39 49 39q47 0 47 -39v-285z" />
    <glyph glyph-name="section" unicode="&#xa7;" horiz-adv-x="627" 
d="M229 393q-88 0 -88 -46v-34q0 -52 103 -52h151q81 0 81 47v32q0 53 -91 53h-156zM567 308q0 -58 -64 -86q64 -31 64 -88q0 -134 -188 -134h-293q-39 0 -39 36q0 38 39 38h309q81 0 81 60q0 53 -89 53h-128q-206 0 -206 125v35q0 55 63 84q-63 30 -63 88q0 119 197 119h20
q42 0 42 -37q0 -36 -42 -36h-41q-88 0 -88 -46q0 -52 99 -52h134q193 0 193 -127v-32z" />
    <glyph glyph-name="dieresis" unicode="&#xa8;" horiz-adv-x="473" 
d="M200 604q0 -44 -54 -44t-54 44q0 41 54 41t54 -41zM379 604q0 -44 -52 -44q-56 0 -56 44q0 41 56 41q52 0 52 -41z" />
    <glyph glyph-name="ordfeminine" unicode="&#xaa;" horiz-adv-x="511" 
d="M398 477h-234q-56 0 -56 -33v-39q0 -31 59 -31h173q58 0 58 50v53zM458 409q0 -89 -127 -89h-153q-134 0 -134 86v37q0 89 132 89h221q-7 31 -58 31h-63q-25 0 -25 28q0 26 25 26h55q127 0 127 -92v-116z" />
    <glyph glyph-name="guillemotleft" unicode="&#xab;" horiz-adv-x="551" 
d="M217 461q16 10 26 10q17 0 29.5 -14t12.5 -31q0 -21 -19 -34l-149 -111l149 -109q11 -8 15.5 -17.5t4.5 -18.5q0 -17 -13 -30.5t-30 -13.5q-6 0 -13.5 2t-12.5 7l-187 146q-18 13 -18 35q0 20 18 34zM470 461q6 5 13 7t13 3q17 0 29 -14t12 -31q0 -21 -19 -34l-148 -111
l148 -109q12 -9 16 -18t4 -18q0 -17 -12.5 -30.5t-29.5 -13.5q-6 0 -13.5 2t-12.5 7l-188 146q-18 13 -18 35q0 11 4.5 18.5t13.5 15.5z" />
    <glyph glyph-name="macron" unicode="&#xaf;" horiz-adv-x="449" 
d="M55 563q-41 0 -41 37q0 38 41 38h337q43 0 43 -36q0 -39 -43 -39h-337z" />
    <glyph glyph-name="degree" unicode="&#xb0;" horiz-adv-x="390" 
d="M293 579q0 22 -8 41t-21.5 33t-31.5 22t-37 8q-21 0 -38.5 -9t-30.5 -23.5t-20.5 -33.5t-7.5 -38q0 -23 8 -42.5t21.5 -33t31 -21t36.5 -7.5q20 0 38 8t31.5 22.5t21 33.5t7.5 40zM346 580q0 -32 -11 -61t-31 -51t-47.5 -35t-61.5 -13q-32 0 -59.5 12t-47.5 33.5
t-32 50.5t-12 64q0 33 12 62t32 50t47.5 33.5t59.5 12.5q33 0 60.5 -12.5t47.5 -34t31.5 -50t11.5 -61.5z" />
    <glyph glyph-name="plusminus" unicode="&#xb1;" horiz-adv-x="418" 
d="M53 83q-36 0 -36 35q0 34 36 34h287q34 0 34 -32q0 -37 -34 -37h-287zM374 319q0 -38 -34 -38h-100v-66q0 -38 -42 -38q-47 0 -47 38v66h-99q-33 0 -33 38q0 36 33 36h97v64q0 38 45 38q46 0 46 -38v-64h100q34 0 34 -36z" />
    <glyph glyph-name="twosuperior" unicode="&#xb2;" horiz-adv-x="616" 
d="M561 486q0 -126 -174 -126h-147q-93 0 -93 -36v-77h376q38 0 38 -40t-38 -40h-433q-35 0 -35 35v121q0 119 198 119h144q70 0 70 35v46q0 35 -66 35h-111q-42 0 -42 41q0 39 42 39h104q167 0 167 -124v-28z" />
    <glyph glyph-name="threesuperior" unicode="&#xb3;" horiz-adv-x="624" 
d="M569 495q0 -55 -63 -85q63 -29 63 -90v-26q0 -127 -194 -127h-277q-43 0 -43 40t43 40h289q89 0 89 45v43q0 13 -22 22l2 -1q-27 10 -66 10h-292q-43 0 -43 42q0 41 43 41h292q17 0 31.5 3t28.5 5h-1q27 10 27 26v43q0 32 -87 32h-84q-44 0 -44 41q0 39 44 39h66
q198 0 198 -115v-28z" />
    <glyph glyph-name="acute" unicode="&#xb4;" horiz-adv-x="222" 
d="M67 544q-5 -7 -11 -9t-13 -2q-11 0 -20 9.5t-9 21.5t10 22l131 140q11 11 24 11q11 0 20 -10t9 -21q0 -12 -9 -22z" />
    <glyph glyph-name="mu" unicode="&#xb5;" horiz-adv-x="767" 
d="M60 458q0 37 43 37q44 0 44 -37v-384h342q129 0 129 68v316q0 37 43 37q46 0 46 -37v-316q0 -142 -232 -142h-328v-97q0 -42 -44 -42q-43 0 -43 42v555z" />
    <glyph glyph-name="paragraph" unicode="&#xb6;" horiz-adv-x="707" 
d="M147 496q0 -71 86 -71h319v138h-323q-82 0 -82 -67zM600 -5q-48 0 -48 41v311h-138v-311q0 -40 -49 -40q-47 0 -47 40v311h-71q-192 0 -192 149q0 142 185 142h376q32 0 32 -30v-572q0 -41 -48 -41z" />
    <glyph glyph-name="periodcentered" unicode="&#xb7;" horiz-adv-x="213" 
d="M168 263q0 -48 -61 -48t-61 48t61 48t61 -48z" />
    <glyph glyph-name="cedilla" unicode="&#xb8;" horiz-adv-x="245" 
d="M231 -40q0 -115 -126 -115h-54q-37 0 -37 33t37 33h56q46 0 46 49v31q0 36 40 36q38 0 38 -36v-31z" />
    <glyph glyph-name="onesuperior" unicode="&#xb9;" horiz-adv-x="204" 
d="M149 206q0 -41 -49 -41q-45 0 -45 41v395q0 40 46 40q48 0 48 -40v-395z" />
    <glyph glyph-name="ordmasculine" unicode="&#xba;" horiz-adv-x="489" 
d="M372 527q0 36 -67 36h-119q-76 0 -76 -40v-111q0 -38 76 -38h119q67 0 67 38v115zM437 412q0 -92 -141 -92h-105q-143 0 -143 92v111q0 94 145 94h103q141 0 141 -94v-111z" />
    <glyph glyph-name="guillemotright" unicode="&#xbb;" horiz-adv-x="552" 
d="M333 102q-14 -9 -27 -9q-17 0 -29 13t-12 30q0 19 19 34l149 112l-149 109q-11 8 -15.5 17.5t-4.5 17.5q0 17 12.5 31.5t29.5 14.5q18 0 27 -10l188 -146q18 -15 18 -34q0 -11 -5 -19t-14 -16zM79 102q-14 -9 -24 -9q-19 0 -30.5 13t-11.5 30q0 19 19 34l148 112
l-148 109q-20 14 -20 32t11.5 33.5t31.5 15.5q14 0 24 -10l189 -146q8 -6 12.5 -15.5t5.5 -18.5q0 -11 -5 -19t-14 -16z" />
    <glyph glyph-name="onequarter" unicode="&#xbc;" horiz-adv-x="1359" 
d="M148 206q0 -41 -48 -41q-45 0 -45 41v395q0 40 46 40q47 0 47 -40v-395zM224 -1q-15 -12 -28 -12q-42 0 -42 43q0 18 13 31l558 575q14 14 34 14q46 0 46 -42q0 -17 -16 -33zM1305 32q0 -41 -48 -41q-46 0 -46 41v79h-397q-26 0 -37 11.5t-11 38.5v266q0 41 45 41
q46 0 46 -41v-226h354v226q0 41 46 41q48 0 48 -41v-395z" />
    <glyph glyph-name="onehalf" unicode="&#xbd;" horiz-adv-x="1215" 
d="M148 206q0 -41 -48 -41q-45 0 -45 41v395q0 40 46 40q47 0 47 -40v-395zM210 -1q-14 -12 -29 -12q-41 0 -41 43q0 18 13 31l558 575q14 14 35 14q45 0 45 -42q0 -18 -15 -33zM1161 319q0 -126 -174 -126h-148q-91 0 -91 -37v-76h374q39 0 39 -40t-39 -40h-433
q-36 0 -36 36v119q0 119 199 119h143q70 0 70 36v45q0 36 -64 36h-112q-41 0 -41 41t41 41h104q168 0 168 -126v-28z" />
    <glyph glyph-name="threequarters" unicode="&#xbe;" horiz-adv-x="1713" 
d="M580 -1q-17 -12 -30 -12q-41 0 -41 43q0 18 13 31l558 575q14 14 35 14q46 0 46 -42q0 -17 -16 -33zM1658 34q0 -42 -48 -42q-45 0 -45 42v79h-398q-25 0 -36 11.5t-11 38.5v266q0 41 47 41q44 0 44 -41v-226h354v226q0 41 45 41q48 0 48 -41v-395zM568 495
q0 -54 -57 -85q57 -29 57 -90v-26q0 -127 -194 -127h-278q-41 0 -41 40t41 40h289q89 0 89 45v43q0 13 -20 22l2 -1q-27 10 -67 10h-293q-41 0 -41 42q0 41 41 41h293q33 0 59 8.5t26 25.5v43q0 32 -87 32h-84q-43 0 -43 41q0 39 43 39h67q198 0 198 -115v-28z" />
    <glyph glyph-name="questiondown" unicode="&#xbf;" horiz-adv-x="552" 
d="M408 397q0 47 60 47q62 0 62 -47q0 -48 -60 -48q-62 0 -62 48zM17 52q0 140 246 140h122q36 0 36 45v14q0 48 47 48q42 0 42 -48v-27q0 -106 -158 -106h-106q-72 0 -106.5 -18.5t-34.5 -51.5v-74q0 -90 141 -90h42q35 0 35 -37q0 -38 -48 -38h-14q-244 1 -244 163v80z
" />
    <glyph glyph-name="Agrave" unicode="&#xc0;" 
d="M259 251h386l-191 306zM698 174h-490l-106 -158q-8 -11 -17.5 -16t-15.5 -5q-21 0 -36 12t-15 32q0 11 7 24l366 549q11 17 28 25t34 8q36 0 59 -33l369 -549q6 -6 7.5 -12.5t1.5 -11.5q0 -20 -14 -31t-34 -11q-9 0 -20 5t-19 15zM367 823q-10 10 -10 22q0 11 9 21t20 10
q13 0 24 -11l132 -140q9 -11 9 -22q0 -12 -9 -21.5t-20 -9.5q-6 0 -12 2t-12 9z" />
    <glyph glyph-name="Aacute" unicode="&#xc1;" 
d="M259 251h386l-191 306zM698 174h-490l-106 -158q-8 -11 -17.5 -16t-15.5 -5q-21 0 -36 12t-15 32q0 11 7 24l366 549q11 17 28 25t34 8q36 0 59 -33l369 -549q6 -6 7.5 -12.5t1.5 -11.5q0 -20 -14 -31t-34 -11q-9 0 -20 5t-19 15zM410 683q-5 -7 -11 -9t-13 -2
q-11 0 -20 9.5t-9 21.5t10 22l131 140q11 11 24 11q11 0 20 -10t9 -21q0 -12 -9 -22z" />
    <glyph glyph-name="Acircumflex" unicode="&#xc2;" 
d="M259 251h386l-191 306zM698 174h-490l-106 -158q-8 -11 -17.5 -16t-15.5 -5q-21 0 -36 12t-15 32q0 11 7 24l366 549q11 17 28 25t34 8q36 0 59 -33l369 -549q6 -6 7.5 -12.5t1.5 -11.5q0 -20 -14 -31t-34 -11q-9 0 -20 5t-19 15zM613 720q10 -13 10 -23q0 -14 -11 -24.5
t-22 -10.5q-12 0 -21 12v-1l-116 120l-114 -120q-9 -11 -20 -11q-14 0 -24.5 10.5t-10.5 24.5q0 6 7 19l129 137q8 6 15 10t18 4q12 0 19.5 -4t13.5 -10z" />
    <glyph glyph-name="Atilde" unicode="&#xc3;" 
d="M259 251h386l-191 306zM698 174h-490l-106 -158q-8 -11 -17.5 -16t-15.5 -5q-21 0 -36 12t-15 32q0 11 7 24l366 549q11 17 28 25t34 8q36 0 59 -33l369 -549q6 -6 7.5 -12.5t1.5 -11.5q0 -20 -14 -31t-34 -11q-9 0 -20 5t-19 15zM282 705q-39 0 -39 34q0 37 39 37h342
q40 0 40 -35q0 -36 -40 -36h-342z" />
    <glyph glyph-name="Adieresis" unicode="&#xc4;" 
d="M259 251h386l-191 306zM698 174h-490l-106 -158q-8 -11 -17.5 -16t-15.5 -5q-21 0 -36 12t-15 32q0 11 7 24l366 549q11 17 28 25t34 8q36 0 59 -33l369 -549q6 -6 7.5 -12.5t1.5 -11.5q0 -20 -14 -31t-34 -11q-9 0 -20 5t-19 15zM417 743q0 -44 -54 -44t-54 44
q0 41 54 41t54 -41zM596 743q0 -44 -52 -44q-56 0 -56 44q0 41 56 41q52 0 52 -41z" />
    <glyph glyph-name="Aring" unicode="&#xc5;" 
d="M509 790q0 25 -16 39.5t-38 14.5q-25 0 -40 -14.5t-15 -39.5q0 -20 15 -35t40 -15q22 0 38 15t16 35zM560 790q0 -21 -8.5 -40t-22.5 -33.5t-33.5 -23t-40.5 -8.5q-24 0 -43.5 8.5t-33.5 23t-22 33.5t-8 40q0 50 34 80h-1q31 29 74 29q21 0 40.5 -8.5t33.5 -23
t22.5 -34.5t8.5 -43zM259 251h386l-191 306zM698 174h-490l-106 -158q-8 -11 -17.5 -16t-15.5 -5q-21 0 -36 12t-15 32q0 11 7 24l366 549q11 17 28 25t34 8q36 0 59 -33l369 -549q6 -6 7.5 -12.5t1.5 -11.5q0 -20 -14 -31t-34 -11q-9 0 -20 5t-19 15z" />
    <glyph glyph-name="AE" unicode="&#xc6;" horiz-adv-x="1097" 
d="M328 355h166v208h-26zM543 0q-49 0 -49 39v239h-216l-175 -262q-8 -11 -17 -16t-17 -5q-20 0 -35.5 13t-15.5 32q0 12 7 22l367 550q17 26 62 26h352q33 0 33 -38q0 -37 -33 -37h-214v-208h419q33 0 33 -39q0 -38 -33 -38h-419v-202h419q34 0 34 -37q0 -39 -34 -39h-468z
" />
    <glyph glyph-name="Ccedilla" unicode="&#xc7;" horiz-adv-x="759" 
d="M309 563q-160 0 -160 -75v-325q0 -87 176 -87h350q35 0 35 -37q0 -39 -35 -39h-197v-40q0 -115 -127 -115h-54q-37 0 -37 33t37 33h56q46 0 46 49v40h-87q-257 0 -257 160v328q0 150 251 150h369q35 0 35 -37q0 -38 -35 -38h-366z" />
    <glyph glyph-name="Egrave" unicode="&#xc8;" horiz-adv-x="799" 
d="M151 355h562q33 0 33 -39q0 -38 -33 -38h-562v-120q0 -82 155 -82h407q35 0 35 -37q0 -39 -35 -39h-410q-248 0 -248 154v327q0 157 257 157h111q33 0 33 -38q0 -37 -33 -37h-75q-197 0 -197 -82v-126zM266 823q-10 10 -10 22q0 11 9 21t20 10q13 0 24 -11l132 -140
q9 -11 9 -22q0 -12 -9 -21.5t-20 -9.5q-6 0 -12 2t-12 9z" />
    <glyph glyph-name="Eacute" unicode="&#xc9;" horiz-adv-x="799" 
d="M151 355h562q33 0 33 -39q0 -38 -33 -38h-562v-120q0 -82 155 -82h407q35 0 35 -37q0 -39 -35 -39h-410q-248 0 -248 154v327q0 157 257 157h111q33 0 33 -38q0 -37 -33 -37h-75q-197 0 -197 -82v-126zM355 683q-5 -7 -11 -9t-13 -2q-11 0 -20 9.5t-9 21.5t10 22l131 140
q11 11 24 11q11 0 20 -10t9 -21q0 -12 -9 -22z" />
    <glyph glyph-name="Ecircumflex" unicode="&#xca;" horiz-adv-x="799" 
d="M151 355h562q33 0 33 -39q0 -38 -33 -38h-562v-120q0 -82 155 -82h407q35 0 35 -37q0 -39 -35 -39h-410q-248 0 -248 154v327q0 157 257 157h111q33 0 33 -38q0 -37 -33 -37h-75q-197 0 -197 -82v-126zM513 720q10 -13 10 -23q0 -14 -11 -24.5t-22 -10.5q-12 0 -21 12v-1
l-116 120l-114 -120q-9 -11 -20 -11q-14 0 -24.5 10.5t-10.5 24.5q0 6 7 19l129 137q8 6 15 10t18 4q12 0 19.5 -4t13.5 -10z" />
    <glyph glyph-name="Edieresis" unicode="&#xcb;" horiz-adv-x="799" 
d="M151 355h562q33 0 33 -39q0 -38 -33 -38h-562v-120q0 -82 155 -82h407q35 0 35 -37q0 -39 -35 -39h-410q-248 0 -248 154v327q0 157 257 157h111q33 0 33 -38q0 -37 -33 -37h-75q-197 0 -197 -82v-126zM318 743q0 -44 -54 -44t-54 44q0 41 54 41t54 -41zM497 743
q0 -44 -52 -44q-56 0 -56 44q0 41 56 41q52 0 52 -41z" />
    <glyph glyph-name="Igrave" unicode="&#xcc;" horiz-adv-x="242" 
d="M169 36q0 -40 -48 -40t-48 40v568q0 39 50 39q46 0 46 -39v-568zM34 823q-10 10 -10 22q0 11 9 21t20 10q13 0 24 -11l132 -140q9 -11 9 -22q0 -12 -9 -21.5t-20 -9.5q-6 0 -12 2t-12 9z" />
    <glyph glyph-name="Iacute" unicode="&#xcd;" horiz-adv-x="242" 
d="M169 36q0 -40 -48 -40t-48 40v568q0 39 50 39q46 0 46 -39v-568zM77 683q-5 -7 -11 -9t-13 -2q-11 0 -20 9.5t-9 21.5t10 22l131 140q11 11 24 11q11 0 20 -10t9 -21q0 -12 -9 -22z" />
    <glyph glyph-name="Icircumflex" unicode="&#xce;" horiz-adv-x="242" 
d="M169 36q0 -40 -48 -40t-48 40v568q0 39 50 39q46 0 46 -39v-568zM281 720q10 -13 10 -23q0 -14 -11 -24.5t-22 -10.5q-12 0 -21 12v-1l-116 120l-114 -120q-9 -11 -20 -11q-14 0 -24.5 10.5t-10.5 24.5q0 6 7 19l129 137q8 6 15 10t18 4q12 0 19.5 -4t13.5 -10z" />
    <glyph glyph-name="Idieresis" unicode="&#xcf;" horiz-adv-x="242" 
d="M169 36q0 -40 -48 -40t-48 40v568q0 39 50 39q46 0 46 -39v-568zM87 743q0 -44 -54 -44t-54 44q0 41 54 41t54 -41zM266 743q0 -44 -52 -44q-56 0 -56 44q0 41 56 41q52 0 52 -41z" />
    <glyph glyph-name="Eth" unicode="&#xd0;" horiz-adv-x="883" 
d="M38 287q-38 0 -38 34q0 35 38 35h26v252q0 30 31 30h487q246 0 246 -157v-314q0 -167 -247 -167h-486q-31 0 -31 32v255h-26zM734 481q0 82 -153 82h-421v-207h214q33 0 33 -33q0 -36 -33 -36h-214v-211h418q156 0 156 91v314z" />
    <glyph glyph-name="Ntilde" unicode="&#xd1;" horiz-adv-x="888" 
d="M823 59q0 -32 -17.5 -48t-40.5 -16q-10 0 -21.5 4t-22.5 15l-564 504v-482q0 -41 -47 -41q-46 0 -46 41v547q0 30 18 43.5t40 13.5q14 0 26 -3.5t23 -14.5l559 -494v476q0 39 48 39q45 0 45 -39v-545zM272 705q-39 0 -39 34q0 37 39 37h342q40 0 40 -35q0 -36 -40 -36
h-342z" />
    <glyph glyph-name="Ograve" unicode="&#xd2;" horiz-adv-x="850" 
d="M700 467q0 96 -155 96h-229q-165 0 -165 -96v-299q0 -92 165 -92h223q161 0 161 92v299zM795 167q0 -167 -282 -167h-177q-281 0 -281 166v306q0 166 281 166h177q282 0 282 -166v-305zM338 823q-10 10 -10 22q0 11 9 21t20 10q13 0 24 -11l132 -140q9 -11 9 -22
q0 -12 -9 -21.5t-20 -9.5q-6 0 -12 2t-12 9z" />
    <glyph glyph-name="Oacute" unicode="&#xd3;" horiz-adv-x="850" 
d="M700 467q0 96 -155 96h-229q-165 0 -165 -96v-299q0 -92 165 -92h223q161 0 161 92v299zM795 167q0 -167 -282 -167h-177q-281 0 -281 166v306q0 166 281 166h177q282 0 282 -166v-305zM381 683q-5 -7 -11 -9t-13 -2q-11 0 -20 9.5t-9 21.5t10 22l131 140q11 11 24 11
q11 0 20 -10t9 -21q0 -12 -9 -22z" />
    <glyph glyph-name="Ocircumflex" unicode="&#xd4;" horiz-adv-x="850" 
d="M700 467q0 96 -155 96h-229q-165 0 -165 -96v-299q0 -92 165 -92h223q161 0 161 92v299zM795 167q0 -167 -282 -167h-177q-281 0 -281 166v306q0 166 281 166h177q282 0 282 -166v-305zM584 720q10 -13 10 -23q0 -14 -11 -24.5t-22 -10.5q-12 0 -21 12v-1l-116 120
l-114 -120q-9 -11 -20 -11q-14 0 -24.5 10.5t-10.5 24.5q0 6 7 19l129 137q8 6 15 10t18 4q12 0 19.5 -4t13.5 -10z" />
    <glyph glyph-name="Otilde" unicode="&#xd5;" horiz-adv-x="850" 
d="M700 467q0 96 -155 96h-229q-165 0 -165 -96v-299q0 -92 165 -92h223q161 0 161 92v299zM795 167q0 -167 -282 -167h-177q-281 0 -281 166v306q0 166 281 166h177q282 0 282 -166v-305zM254 705q-39 0 -39 34q0 37 39 37h342q40 0 40 -35q0 -36 -40 -36h-342z" />
    <glyph glyph-name="Odieresis" unicode="&#xd6;" horiz-adv-x="850" 
d="M700 467q0 96 -155 96h-229q-165 0 -165 -96v-299q0 -92 165 -92h223q161 0 161 92v299zM795 167q0 -167 -282 -167h-177q-281 0 -281 166v306q0 166 281 166h177q282 0 282 -166v-305zM390 743q0 -44 -54 -44t-54 44q0 41 54 41t54 -41zM569 743q0 -44 -52 -44
q-56 0 -56 44q0 41 56 41q52 0 52 -41z" />
    <glyph glyph-name="multiply" unicode="&#xd7;" horiz-adv-x="339" 
d="M29 163q0 12 11 26l76 74l-76 77q-11 14 -11 26q0 16 11 27t27 11q14 0 25 -12l76 -76l78 78q10 12 25 12q17 0 28 -12t11 -26t-12 -27l-78 -78l78 -76q12 -12 12 -26q0 -16 -11 -27.5t-28 -11.5q-15 0 -25 13l-78 77l-76 -76q-11 -12 -25 -12q-16 0 -27 11.5t-11 27.5z
" />
    <glyph glyph-name="Oslash" unicode="&#xd8;" horiz-adv-x="918" 
d="M172 180v-13q0 -9 1 -9l467 398q-13 7 -74 7h-228q-166 0 -166 -96v-287zM721 467q0 17 -7 37l-486 -412q31 -16 110 -16h222q161 0 161 92v299zM816 167q0 -167 -281 -167h-179q-281 0 -281 166v306q0 166 281 166h179q281 0 281 -166v-305z" />
    <glyph glyph-name="Ugrave" unicode="&#xd9;" horiz-adv-x="875" 
d="M815 176q0 -176 -315 -176h-143q-297 0 -297 176v428q0 39 46 39q49 0 49 -39v-421q0 -107 188 -107h173q205 0 205 107v421q0 39 47 39t47 -39v-428zM351 823q-10 10 -10 22q0 11 9 21t20 10q13 0 24 -11l132 -140q9 -11 9 -22q0 -12 -9 -21.5t-20 -9.5q-6 0 -12 2
t-12 9z" />
    <glyph glyph-name="Uacute" unicode="&#xda;" horiz-adv-x="875" 
d="M815 176q0 -176 -315 -176h-143q-297 0 -297 176v428q0 39 46 39q49 0 49 -39v-421q0 -107 188 -107h173q205 0 205 107v421q0 39 47 39t47 -39v-428zM394 683q-5 -7 -11 -9t-13 -2q-11 0 -20 9.5t-9 21.5t10 22l131 140q11 11 24 11q11 0 20 -10t9 -21q0 -12 -9 -22z
" />
    <glyph glyph-name="Ucircumflex" unicode="&#xdb;" horiz-adv-x="875" 
d="M815 176q0 -176 -315 -176h-143q-297 0 -297 176v428q0 39 46 39q49 0 49 -39v-421q0 -107 188 -107h173q205 0 205 107v421q0 39 47 39t47 -39v-428zM596 720q10 -13 10 -23q0 -14 -11 -24.5t-22 -10.5q-12 0 -21 12v-1l-116 120l-114 -120q-9 -11 -20 -11
q-14 0 -24.5 10.5t-10.5 24.5q0 6 7 19l129 137q8 6 15 10t18 4q12 0 19.5 -4t13.5 -10z" />
    <glyph glyph-name="Udieresis" unicode="&#xdc;" horiz-adv-x="875" 
d="M815 176q0 -176 -315 -176h-143q-297 0 -297 176v428q0 39 46 39q49 0 49 -39v-421q0 -107 188 -107h173q205 0 205 107v421q0 39 47 39t47 -39v-428zM401 743q0 -44 -54 -44t-54 44q0 41 54 41t54 -41zM580 743q0 -44 -52 -44q-56 0 -56 44q0 41 56 41q52 0 52 -41z" />
    <glyph glyph-name="Yacute" unicode="&#xdd;" horiz-adv-x="763" 
d="M381 345l282 283q13 13 33 13q18 0 33.5 -12.5t15.5 -28.5q0 -6 -2.5 -13t-9.5 -13l-303 -304l-1 -235q-4 -40 -47 -40q-47 0 -47 41v234l-304 304q-13 13 -13 26q0 16 14.5 28t33.5 12q17 0 32 -12zM337 683q-5 -7 -11 -9t-13 -2q-11 0 -20 9.5t-9 21.5t10 22l131 140
q11 11 24 11q11 0 20 -10t9 -21q0 -12 -9 -22z" />
    <glyph glyph-name="Thorn" unicode="&#xde;" horiz-adv-x="870" 
d="M733 374q0 74 -148 74h-425v-248h419q154 0 154 75v99zM160 121v-90q-5 -36 -49 -36q-47 0 -47 41v568q0 39 50 39q46 0 46 -39v-80h411q256 0 256 -141v-113q0 -149 -259 -149h-408z" />
    <glyph glyph-name="germandbls" unicode="&#xdf;" horiz-adv-x="778" 
d="M735 147q0 -147 -220 -147h-209q-38 0 -38 38q0 36 38 36h217q117 0 117 68v71q0 54 -87 54h-18q-206 0 -206 123v118q0 56 -62 56h-45q-74 0 -74 -56v-476q0 -40 -45 -40q-43 0 -43 40v476q0 127 162 127h45q150 0 150 -136v-107q0 -53 103 -53h22q193 0 193 -126v-66z
" />
    <glyph glyph-name="agrave" unicode="&#xe0;" horiz-adv-x="790" 
d="M651 269h-408q-104 0 -104 -66v-67q0 -62 111 -62h294q107 0 107 94v101zM736 143q0 -143 -208 -143h-260q-219 0 -219 137v64q0 142 214 142h387q-9 72 -108 72h-108q-32 0 -32 38q0 35 32 35h94q208 0 208 -146v-199zM399 684q-10 10 -10 22q0 11 9 21t20 10
q13 0 24 -11l132 -140q9 -11 9 -22q0 -12 -9 -21.5t-20 -9.5q-6 0 -12 2t-12 9z" />
    <glyph glyph-name="aacute" unicode="&#xe1;" horiz-adv-x="790" 
d="M651 269h-408q-104 0 -104 -66v-67q0 -62 111 -62h294q107 0 107 94v101zM736 143q0 -143 -208 -143h-260q-219 0 -219 137v64q0 142 214 142h387q-9 72 -108 72h-108q-32 0 -32 38q0 35 32 35h94q208 0 208 -146v-199zM442 544q-5 -7 -11 -9t-13 -2q-11 0 -20 9.5
t-9 21.5t10 22l131 140q11 11 24 11q11 0 20 -10t9 -21q0 -12 -9 -22z" />
    <glyph glyph-name="acircumflex" unicode="&#xe2;" horiz-adv-x="790" 
d="M651 269h-408q-104 0 -104 -66v-67q0 -62 111 -62h294q107 0 107 94v101zM736 143q0 -143 -208 -143h-260q-219 0 -219 137v64q0 142 214 142h387q-9 72 -108 72h-108q-32 0 -32 38q0 35 32 35h94q208 0 208 -146v-199zM646 581q10 -13 10 -23q0 -14 -11 -24.5t-22 -10.5
q-12 0 -21 12v-1l-116 120l-114 -120q-9 -11 -20 -11q-14 0 -24.5 10.5t-10.5 24.5q0 6 7 19l129 137q8 6 15 10t18 4q12 0 19.5 -4t13.5 -10z" />
    <glyph glyph-name="atilde" unicode="&#xe3;" horiz-adv-x="790" 
d="M651 269h-408q-104 0 -104 -66v-67q0 -62 111 -62h294q107 0 107 94v101zM736 143q0 -143 -208 -143h-260q-219 0 -219 137v64q0 142 214 142h387q-9 72 -108 72h-108q-32 0 -32 38q0 35 32 35h94q208 0 208 -146v-199zM315 566q-39 0 -39 34q0 37 39 37h342q40 0 40 -35
q0 -36 -40 -36h-342z" />
    <glyph glyph-name="adieresis" unicode="&#xe4;" horiz-adv-x="790" 
d="M651 269h-408q-104 0 -104 -66v-67q0 -62 111 -62h294q107 0 107 94v101zM736 143q0 -143 -208 -143h-260q-219 0 -219 137v64q0 142 214 142h387q-9 72 -108 72h-108q-32 0 -32 38q0 35 32 35h94q208 0 208 -146v-199zM450 604q0 -44 -54 -44t-54 44q0 41 54 41t54 -41z
M629 604q0 -44 -52 -44q-56 0 -56 44q0 41 56 41q52 0 52 -41z" />
    <glyph glyph-name="aring" unicode="&#xe5;" horiz-adv-x="790" 
d="M541 651q0 25 -16 39.5t-38 14.5q-25 0 -40 -14.5t-15 -39.5q0 -20 15 -35t40 -15q22 0 38 15t16 35zM592 651q0 -21 -8.5 -40t-22.5 -33.5t-33.5 -23t-40.5 -8.5q-24 0 -43.5 8.5t-33.5 23t-22 33.5t-8 40q0 50 34 80h-1q31 29 74 29q21 0 40.5 -8.5t33.5 -23
t22.5 -34.5t8.5 -43zM651 269h-408q-104 0 -104 -66v-67q0 -62 111 -62h294q107 0 107 94v101zM736 143q0 -143 -208 -143h-260q-219 0 -219 137v64q0 142 214 142h387q-9 72 -108 72h-108q-32 0 -32 38q0 35 32 35h94q208 0 208 -146v-199z" />
    <glyph glyph-name="ae" unicode="&#xe6;" horiz-adv-x="1350" 
d="M1304 241q0 -40 -40 -40h-523v-61q0 -66 136 -66h97q38 0 38 -36q0 -38 -38 -38h-75q-139 0 -200 48q-51 -48 -171 -48h-260q-219 0 -219 137v64q0 142 214 142h387q-9 72 -108 72h-108q-32 0 -32 38q0 35 32 35h94q118 0 169 -48q61 48 200 48h201q206 0 206 -130v-117z
M651 269h-408q-104 0 -104 -66v-67q0 -62 111 -62h294q107 0 107 90v105zM741 277h476v72q0 66 -102 66h-238q-136 0 -136 -70v-68z" />
    <glyph glyph-name="ccedilla" unicode="&#xe7;" horiz-adv-x="694" 
d="M425 0v-40q0 -115 -126 -115h-55q-37 0 -37 33t37 33h57q45 0 45 49v40h-50q-241 0 -241 144v201q0 143 219 143h327q41 0 41 -35q0 -38 -41 -38h-339q-118 0 -118 -68v-199q0 -74 136 -74h321q37 0 37 -39q0 -35 -37 -35h-176z" />
    <glyph glyph-name="egrave" unicode="&#xe8;" horiz-adv-x="753" 
d="M144 277h477v72q0 66 -103 66h-238q-136 0 -136 -70v-68zM707 241q0 -40 -40 -40h-523v-61q0 -66 136 -66h97q38 0 38 -36q0 -38 -38 -38h-74q-248 0 -248 151v188q0 149 245 149h200q207 0 207 -130v-117zM289 684q-10 10 -10 22q0 11 9 21t20 10q13 0 24 -11l132 -140
q9 -11 9 -22q0 -12 -9 -21.5t-20 -9.5q-6 0 -12 2t-12 9z" />
    <glyph glyph-name="eacute" unicode="&#xe9;" horiz-adv-x="753" 
d="M144 277h477v72q0 66 -103 66h-238q-136 0 -136 -70v-68zM707 241q0 -40 -40 -40h-523v-61q0 -66 136 -66h97q38 0 38 -36q0 -38 -38 -38h-74q-248 0 -248 151v188q0 149 245 149h200q207 0 207 -130v-117zM332 544q-5 -7 -11 -9t-13 -2q-11 0 -20 9.5t-9 21.5t10 22
l131 140q11 11 24 11q11 0 20 -10t9 -21q0 -12 -9 -22z" />
    <glyph glyph-name="ecircumflex" unicode="&#xea;" horiz-adv-x="753" 
d="M144 277h477v72q0 66 -103 66h-238q-136 0 -136 -70v-68zM707 241q0 -40 -40 -40h-523v-61q0 -66 136 -66h97q38 0 38 -36q0 -38 -38 -38h-74q-248 0 -248 151v188q0 149 245 149h200q207 0 207 -130v-117zM536 581q10 -13 10 -23q0 -14 -11 -24.5t-22 -10.5
q-12 0 -21 12v-1l-116 120l-114 -120q-9 -11 -20 -11q-14 0 -24.5 10.5t-10.5 24.5q0 6 7 19l129 137q8 6 15 10t18 4q12 0 19.5 -4t13.5 -10z" />
    <glyph glyph-name="edieresis" unicode="&#xeb;" horiz-adv-x="753" 
d="M144 277h477v72q0 66 -103 66h-238q-136 0 -136 -70v-68zM707 241q0 -40 -40 -40h-523v-61q0 -66 136 -66h97q38 0 38 -36q0 -38 -38 -38h-74q-248 0 -248 151v188q0 149 245 149h200q207 0 207 -130v-117zM341 604q0 -44 -54 -44t-54 44q0 41 54 41t54 -41zM520 604
q0 -44 -52 -44q-56 0 -56 44q0 41 56 41q52 0 52 -41z" />
    <glyph glyph-name="igrave" unicode="&#xec;" horiz-adv-x="214" 
d="M151 35q0 -40 -44 -40q-43 0 -43 40v413q0 38 42 38q45 0 45 -38v-413zM21 684q-10 10 -10 22q0 11 9 21t20 10q13 0 24 -11l132 -140q9 -11 9 -22q0 -12 -9 -21.5t-20 -9.5q-6 0 -12 2t-12 9z" />
    <glyph glyph-name="iacute" unicode="&#xed;" horiz-adv-x="214" 
d="M151 35q0 -40 -44 -40q-43 0 -43 40v413q0 38 42 38q45 0 45 -38v-413zM64 544q-5 -7 -11 -9t-13 -2q-11 0 -20 9.5t-9 21.5t10 22l131 140q11 11 24 11q11 0 20 -10t9 -21q0 -12 -9 -22z" />
    <glyph glyph-name="icircumflex" unicode="&#xee;" horiz-adv-x="214" 
d="M151 35q0 -40 -44 -40q-43 0 -43 40v413q0 38 42 38q45 0 45 -38v-413zM269 581q10 -13 10 -23q0 -14 -11 -24.5t-22 -10.5q-12 0 -21 12v-1l-116 120l-114 -120q-9 -11 -20 -11q-14 0 -24.5 10.5t-10.5 24.5q0 6 7 19l129 137q8 6 15 10t18 4q12 0 19.5 -4t13.5 -10z
" />
    <glyph glyph-name="idieresis" unicode="&#xef;" horiz-adv-x="214" 
d="M151 35q0 -40 -44 -40q-43 0 -43 40v413q0 38 42 38q45 0 45 -38v-413zM73 604q0 -44 -54 -44t-54 44q0 41 54 41t54 -41zM252 604q0 -44 -52 -44q-56 0 -56 44q0 41 56 41q52 0 52 -41z" />
    <glyph glyph-name="eth" unicode="&#xf0;" horiz-adv-x="761" 
d="M707 150q0 -150 -257 -150h-159q-236 0 -236 148v193q0 147 259 147h211q33 0 33 -36q0 -37 -36 -37h-226q-152 0 -152 -75v-194q0 -72 131 -72l200 -1q141 -2 141 81v340q0 68 -140 68h-85q-39 0 -39 37q0 36 39 36h74q242 0 242 -154v-331z" />
    <glyph glyph-name="ntilde" unicode="&#xf1;" horiz-adv-x="763" 
d="M704 35q0 -40 -45 -40t-45 40v320q0 60 -121 60h-223q-122 0 -122 -60v-320q0 -40 -44 -40t-44 40v320q0 133 235 133h172q237 0 237 -133v-320zM210 566q-39 0 -39 34q0 37 39 37h342q40 0 40 -35q0 -36 -40 -36h-342z" />
    <glyph glyph-name="ograve" unicode="&#xf2;" horiz-adv-x="754" 
d="M608 345q0 70 -125 70h-203q-136 0 -136 -78v-189q0 -74 136 -74h203q125 0 125 74v197zM699 148q0 -148 -230 -148h-179q-235 0 -235 148v189q0 151 238 151h176q230 0 230 -150v-190zM290 684q-10 10 -10 22q0 11 9 21t20 10q13 0 24 -11l132 -140q9 -11 9 -22
q0 -12 -9 -21.5t-20 -9.5q-6 0 -12 2t-12 9z" />
    <glyph glyph-name="oacute" unicode="&#xf3;" horiz-adv-x="754" 
d="M608 345q0 70 -125 70h-203q-136 0 -136 -78v-189q0 -74 136 -74h203q125 0 125 74v197zM699 148q0 -148 -230 -148h-179q-235 0 -235 148v189q0 151 238 151h176q230 0 230 -150v-190zM333 544q-5 -7 -11 -9t-13 -2q-11 0 -20 9.5t-9 21.5t10 22l131 140q11 11 24 11
q11 0 20 -10t9 -21q0 -12 -9 -22z" />
    <glyph glyph-name="ocircumflex" unicode="&#xf4;" horiz-adv-x="754" 
d="M608 345q0 70 -125 70h-203q-136 0 -136 -78v-189q0 -74 136 -74h203q125 0 125 74v197zM699 148q0 -148 -230 -148h-179q-235 0 -235 148v189q0 151 238 151h176q230 0 230 -150v-190zM536 581q10 -13 10 -23q0 -14 -11 -24.5t-22 -10.5q-12 0 -21 12v-1l-116 120
l-114 -120q-9 -11 -20 -11q-14 0 -24.5 10.5t-10.5 24.5q0 6 7 19l129 137q8 6 15 10t18 4q12 0 19.5 -4t13.5 -10z" />
    <glyph glyph-name="otilde" unicode="&#xf5;" horiz-adv-x="754" 
d="M608 345q0 70 -125 70h-203q-136 0 -136 -78v-189q0 -74 136 -74h203q125 0 125 74v197zM699 148q0 -148 -230 -148h-179q-235 0 -235 148v189q0 151 238 151h176q230 0 230 -150v-190zM206 566q-39 0 -39 34q0 37 39 37h342q40 0 40 -35q0 -36 -40 -36h-342z" />
    <glyph glyph-name="odieresis" unicode="&#xf6;" horiz-adv-x="754" 
d="M608 345q0 70 -125 70h-203q-136 0 -136 -78v-189q0 -74 136 -74h203q125 0 125 74v197zM699 148q0 -148 -230 -148h-179q-235 0 -235 148v189q0 151 238 151h176q230 0 230 -150v-190zM341 604q0 -44 -54 -44t-54 44q0 41 54 41t54 -41zM520 604q0 -44 -52 -44
q-56 0 -56 44q0 41 56 41q52 0 52 -41z" />
    <glyph glyph-name="divide" unicode="&#xf7;" horiz-adv-x="465" 
d="M292 139q0 -47 -62 -47q-60 0 -60 47t58 47q64 0 64 -47zM292 392q0 -47 -62 -47q-60 0 -60 47q0 48 58 48q64 0 64 -48zM65 231q-36 0 -36 34q0 36 36 36h337q33 0 33 -34q0 -36 -33 -36h-337z" />
    <glyph glyph-name="oslash" unicode="&#xf8;" horiz-adv-x="754" 
d="M608 345q0 12 -4 19l-391 -285q14 -3 30.5 -4t36.5 -1h203q125 0 125 74v197zM144 148q0 -9 0.5 -15.5t2.5 -11.5l396 288q-16 2 -30.5 4t-29.5 2h-203q-136 0 -136 -78v-189zM699 148q0 -148 -230 -148h-179q-235 0 -235 148v189q0 151 238 151h176q230 0 230 -150v-190
z" />
    <glyph glyph-name="ugrave" unicode="&#xf9;" horiz-adv-x="771" 
d="M712 142q0 -142 -248 -142h-154q-250 0 -250 142v316q0 38 43 38q44 0 44 -38v-316q0 -68 148 -68h183q144 0 144 66v318q0 37 46 37q44 0 44 -37v-316zM298 684q-10 10 -10 22q0 11 9 21t20 10q13 0 24 -11l132 -140q9 -11 9 -22q0 -12 -9 -21.5t-20 -9.5q-6 0 -12 2
t-12 9z" />
    <glyph glyph-name="uacute" unicode="&#xfa;" horiz-adv-x="771" 
d="M712 142q0 -142 -248 -142h-154q-250 0 -250 142v316q0 38 43 38q44 0 44 -38v-316q0 -68 148 -68h183q144 0 144 66v318q0 37 46 37q44 0 44 -37v-316zM341 544q-5 -7 -11 -9t-13 -2q-11 0 -20 9.5t-9 21.5t10 22l131 140q11 11 24 11q11 0 20 -10t9 -21q0 -12 -9 -22z
" />
    <glyph glyph-name="ucircumflex" unicode="&#xfb;" horiz-adv-x="771" 
d="M712 142q0 -142 -248 -142h-154q-250 0 -250 142v316q0 38 43 38q44 0 44 -38v-316q0 -68 148 -68h183q144 0 144 66v318q0 37 46 37q44 0 44 -37v-316zM545 581q10 -13 10 -23q0 -14 -11 -24.5t-22 -10.5q-12 0 -21 12v-1l-116 120l-114 -120q-9 -11 -20 -11
q-14 0 -24.5 10.5t-10.5 24.5q0 6 7 19l129 137q8 6 15 10t18 4q12 0 19.5 -4t13.5 -10z" />
    <glyph glyph-name="udieresis" unicode="&#xfc;" horiz-adv-x="771" 
d="M712 142q0 -142 -248 -142h-154q-250 0 -250 142v316q0 38 43 38q44 0 44 -38v-316q0 -68 148 -68h183q144 0 144 66v318q0 37 46 37q44 0 44 -37v-316zM350 604q0 -44 -54 -44t-54 44q0 41 54 41t54 -41zM529 604q0 -44 -52 -44q-56 0 -56 44q0 41 56 41q52 0 52 -41z
" />
    <glyph glyph-name="yacute" unicode="&#xfd;" horiz-adv-x="770" 
d="M707 -5q0 -134 -203 -134h-111q-34 0 -34 37q0 35 34 35h119q107 0 107 62v5h-327q-232 0 -232 142v316q0 37 44 37t44 -37v-316q0 -68 127 -68h344v384q0 37 43 37q45 0 45 -37v-463zM341 544q-5 -7 -11 -9t-13 -2q-11 0 -20 9.5t-9 21.5t10 22l131 140q11 11 24 11
q11 0 20 -10t9 -21q0 -12 -9 -22z" />
    <glyph glyph-name="thorn" unicode="&#xfe;" horiz-adv-x="770" 
d="M625 347q0 68 -142 68h-194q-136 0 -136 -70v-271h356q116 0 116 72v201zM716 147q0 -147 -222 -147h-341v-110q0 -41 -45 -41q-44 0 -44 41v714q0 39 44 39q45 0 45 -39v-143q54 27 146 27h170q247 0 247 -139v-202z" />
    <glyph glyph-name="ydieresis" unicode="&#xff;" horiz-adv-x="770" 
d="M707 -5q0 -134 -203 -134h-111q-34 0 -34 37q0 35 34 35h119q107 0 107 62v5h-327q-232 0 -232 142v316q0 37 44 37t44 -37v-316q0 -68 127 -68h344v384q0 37 43 37q45 0 45 -37v-463zM349 604q0 -44 -54 -44t-54 44q0 41 54 41t54 -41zM528 604q0 -44 -52 -44
q-56 0 -56 44q0 41 56 41q52 0 52 -41z" />
    <glyph glyph-name="Idotaccent" unicode="&#x130;" horiz-adv-x="242" 
d="M182 776q0 -48 -61 -48t-61 48q0 46 61 46t61 -46zM169 36q0 -40 -48 -40t-48 40v568q0 39 50 39q46 0 46 -39v-568z" />
    <glyph glyph-name="OE" unicode="&#x152;" horiz-adv-x="1443" 
d="M795 355h562q33 0 33 -39q0 -38 -33 -38h-562v-120q0 -82 155 -82h407q35 0 35 -37q0 -39 -35 -39h-410q-149 0 -205 53q-70 -53 -229 -53h-177q-281 0 -281 166v306q0 166 281 166h177q161 0 230 -54q32 27 83.5 40.5t129.5 13.5h111q33 0 33 -38q0 -37 -33 -37h-74
q-198 0 -198 -91v-117zM316 563q-165 0 -165 -96v-299q0 -92 165 -92h223q160 0 160 82v314q0 91 -154 91h-229z" />
    <glyph glyph-name="oe" unicode="&#x153;" horiz-adv-x="1310" 
d="M1263 241q0 -40 -39 -40h-524v-61q0 -66 136 -66h98q38 0 38 -36q0 -38 -38 -38h-75q-140 0 -202 49q-56 -49 -188 -49h-179q-235 0 -235 148v189q0 151 238 151h176q132 0 187 -49q58 49 201 49h200q206 0 206 -130v-117zM608 345q0 70 -125 70h-203q-136 0 -136 -78
v-189q0 -74 136 -74h203q125 0 125 74v197zM700 277h477v72q0 66 -102 66h-239q-136 0 -136 -70v-68z" />
    <glyph glyph-name="racute" unicode="&#x155;" horiz-adv-x="379" 
d="M276 415q-127 0 -127 -75v-305q0 -40 -45 -40q-44 0 -44 40v305q0 148 225 148h41q33 0 33 -36q0 -37 -28 -37h-55zM145 544q-5 -7 -11 -9t-13 -2q-11 0 -20 9.5t-9 21.5t10 22l131 140q11 11 24 11q11 0 20 -10t9 -21q0 -12 -9 -22z" />
    <glyph glyph-name="Rcommaaccent" unicode="&#x156;" horiz-adv-x="866" 
d="M382 -14q31 0 31 -27q0 -5 -0.5 -10t-1.5 -10l-27 -103q-4 -14 -15 -21t-22 -7q-12 0 -20 8t-8 19l23 120q2 14 13.5 22.5t26.5 8.5zM727 480q0 83 -157 83h-410v-234h427q140 0 140 68v83zM821 406q0 -153 -243 -153h-233l403 -177q25 -12 25 -34q0 -17 -11.5 -32
t-30.5 -15q-9 0 -18 6l-553 258v-223q0 -41 -47 -41q-49 0 -49 41v572q0 30 31 30h461q265 0 265 -163v-69z" />
    <glyph glyph-name="Scaron" unicode="&#x160;" horiz-adv-x="801" 
d="M150 804q-11 11 -11 22q0 14 11.5 23.5t22.5 9.5q12 0 21 -10l115 -120l114 121q9 9 21 9q14 0 24 -10t10 -24q0 -11 -7 -18l-130 -137q-14 -15 -31 -15q-21 0 -35 15zM741 147q0 -147 -240 -147h-424q-35 0 -35 40q0 36 35 36h437q131 0 131 76v55q0 83 -156 83h-193
q-249 0 -249 134v64q0 150 218 150h106q36 0 36 -38q0 -37 -36 -37h-121q-108 0 -108 -81v-49q0 -69 139 -69h196q264 0 264 -149v-68z" />
    <glyph glyph-name="scaron" unicode="&#x161;" horiz-adv-x="708" 
d="M103 665q-11 11 -11 22q0 14 11.5 23.5t22.5 9.5q12 0 21 -10l115 -120l114 121q9 9 21 9q14 0 24 -10t10 -24q0 -11 -7 -18l-130 -137q-14 -15 -31 -15q-21 0 -35 15zM650 130q0 -130 -186 -130h-378q-39 0 -39 36q0 38 39 38h393q80 0 80 56v29q0 54 -90 54h-210
q-206 0 -206 124v32q0 119 196 119h104q39 0 39 -36q0 -37 -39 -37h-125q-87 0 -87 -46v-30q0 -54 103 -54h214q192 0 192 -126v-29z" />
    <glyph glyph-name="Ydieresis" unicode="&#x178;" horiz-adv-x="763" 
d="M381 345l282 283q13 13 33 13q18 0 33.5 -12.5t15.5 -28.5q0 -6 -2.5 -13t-9.5 -13l-303 -304l-1 -235q-4 -40 -47 -40q-47 0 -47 41v234l-304 304q-13 13 -13 26q0 16 14.5 28t33.5 12q17 0 32 -12zM345 743q0 -44 -54 -44t-54 44q0 41 54 41t54 -41zM524 743
q0 -44 -52 -44q-56 0 -56 44q0 41 56 41q52 0 52 -41z" />
    <glyph glyph-name="Zcaron" unicode="&#x17d;" horiz-adv-x="755" 
d="M219 804q-11 11 -11 22q0 14 11.5 23.5t22.5 9.5q12 0 21 -10l115 -120l114 121q9 9 21 9q14 0 24 -10t10 -24q0 -11 -7 -18l-130 -137q-14 -15 -31 -15q-21 0 -35 15zM587 563h-516q-34 0 -34 40q0 35 34 35h606q20 0 32.5 -14.5t12.5 -31.5q0 -19 -14 -30l-556 -486
h535q35 0 35 -37q0 -39 -35 -39h-603q-26 0 -42 16t-16 36q0 9 4 18t13 17z" />
    <glyph glyph-name="zcaron" unicode="&#x17e;" horiz-adv-x="736" 
d="M209 665q-11 11 -11 22q0 14 11.5 23.5t22.5 9.5q12 0 21 -10l115 -120l114 121q9 9 21 9q14 0 24 -10t10 -24q0 -11 -7 -18l-130 -137q-14 -15 -31 -15q-21 0 -35 15zM536 415h-447q-37 0 -37 37q0 36 37 36h531q25 0 39.5 -14t14.5 -31q0 -26 -25 -42l-479 -327h492
q36 0 36 -36q0 -38 -36 -38h-576q-24 0 -40 13.5t-16 32.5q0 13 7.5 22t21.5 19z" />
    <glyph glyph-name="aringacute" unicode="&#x1fb;" horiz-adv-x="790" 
d="M507 651q0 25 -16 39.5t-38 14.5q-25 0 -40 -14.5t-15 -39.5q0 -20 15 -35t40 -15q22 0 38 15t16 35zM558 651q0 -21 -8.5 -40t-22.5 -33.5t-33.5 -23t-40.5 -8.5q-24 0 -43.5 8.5t-33.5 23t-22 33.5t-8 40q0 50 34 80h-1q31 29 74 29q21 0 40.5 -8.5t33.5 -23
t22.5 -34.5t8.5 -43zM651 269h-408q-104 0 -104 -66v-67q0 -62 111 -62h294q107 0 107 94v101zM736 143q0 -143 -208 -143h-260q-219 0 -219 137v64q0 142 214 142h387q-9 72 -108 72h-108q-32 0 -32 38q0 35 32 35h94q208 0 208 -146v-199zM623 566q-5 -7 -11 -9t-13 -2
q-11 0 -20 9.5t-9 21.5t10 22l131 140q11 11 24 11q11 0 20 -10t9 -21q0 -12 -9 -22z" />
    <glyph glyph-name="circumflex" unicode="&#x2c6;" horiz-adv-x="367" 
d="M343 581q10 -13 10 -23q0 -14 -11 -24.5t-22 -10.5q-12 0 -21 12v-1l-116 120l-114 -120q-9 -11 -20 -11q-14 0 -24.5 10.5t-10.5 24.5q0 6 7 19l129 137q8 6 15 10t18 4q12 0 19.5 -4t13.5 -10z" />
    <glyph glyph-name="tilde" unicode="&#x2dc;" horiz-adv-x="449" 
d="M53 566q-39 0 -39 34q0 37 39 37h342q40 0 40 -35q0 -36 -40 -36h-342z" />
    <glyph glyph-name="endash" unicode="&#x2013;" horiz-adv-x="523" 
d="M49 231q-37 0 -37 34q0 36 37 36h428q33 0 33 -34q0 -36 -33 -36h-428z" />
    <glyph glyph-name="emdash" unicode="&#x2014;" horiz-adv-x="668" 
d="M49 231q-37 0 -37 34q0 36 37 36h574q32 0 32 -34q0 -36 -32 -36h-574z" />
    <glyph glyph-name="quoteleft" unicode="&#x2018;" horiz-adv-x="206" 
d="M41 600q-1 2 -1 5v7q0 17 12.5 26t28.5 9q19 0 35.5 -10.5t18.5 -30.5l30 -152q1 -1 1 -6v-5q0 -17 -11.5 -25.5t-27.5 -8.5q-14 0 -28 9t-19 29z" />
    <glyph glyph-name="quoteright" unicode="&#x2019;" horiz-adv-x="205" 
d="M125 447q-5 -20 -20 -29t-29 -9q-15 0 -25.5 8.5t-10.5 25.5q0 1 0.5 3.5l1.5 7.5l27 152q4 20 19.5 30.5t34.5 10.5q17 0 29.5 -9t12.5 -26q0 -9 -1 -12z" />
    <glyph glyph-name="quotesinglbase" unicode="&#x201a;" horiz-adv-x="206" 
d="M126 -59q-6 -19 -20 -28t-28 -9q-17 0 -27 10.5t-10 24.5q0 1 0.5 1.5t0.5 2.5l29 156q4 20 20 31.5t33 11.5q19 0 30.5 -10t11.5 -27q0 -8 -1 -10z" />
    <glyph glyph-name="quotedblleft" unicode="&#x201c;" horiz-adv-x="333" 
d="M41 600q-1 2 -1 5v7q0 17 12.5 26t27.5 9q20 0 36.5 -10.5t18.5 -30.5l29 -152q1 -1 1 -6v-5q0 -17 -11 -25.5t-27 -8.5q-14 0 -28 9t-20 29zM170 600q-1 1 -1 4q0 1 -1 1v7q0 17 12 26t28 9q20 0 35.5 -10.5t19.5 -30.5l29 -152q1 -1 1 -6v-5q0 -17 -11 -25.5t-27 -8.5
q-14 0 -28.5 9t-19.5 29z" />
    <glyph glyph-name="quotedblright" unicode="&#x201d;" horiz-adv-x="332" 
d="M125 447q-5 -20 -19.5 -29t-28.5 -9q-16 0 -26.5 9t-10.5 26q0 8 1 10l28 152q4 20 19 30.5t35 10.5q17 0 30 -9.5t13 -27.5l-2 -10zM252 447q-5 -20 -20 -29t-28 -9q-16 0 -26.5 9t-10.5 26v10l30 152q3 20 18.5 30.5t34.5 10.5q17 0 29.5 -9.5t12.5 -27.5l-2 -10z" />
    <glyph glyph-name="quotedblbase" unicode="&#x201e;" horiz-adv-x="376" 
d="M297 -59q-6 -19 -20 -28t-28 -9q-17 0 -27 10.5t-10 24.5q0 1 0.5 1.5t0.5 2.5l29 156q4 20 20 31.5t33 11.5q19 0 30.5 -10t11.5 -27q0 -8 -1 -10zM126 -59q-6 -19 -20 -28t-28 -9q-17 0 -27 10.5t-10 24.5q0 1 0.5 1.5t0.5 2.5l29 156q4 20 20 31.5t33 11.5
q19 0 30.5 -10t11.5 -27q0 -8 -1 -10z" />
    <glyph glyph-name="dagger" unicode="&#x2020;" horiz-adv-x="386" 
d="M248 415l-12 -380q-1 -40 -43 -40q-43 0 -43 40l-15 380h-83q-39 0 -39 38q0 35 39 35h77v103q0 52 65 52q63 0 63 -52v-103h81q35 0 35 -36q0 -37 -35 -37h-90z" />
    <glyph glyph-name="daggerdbl" unicode="&#x2021;" horiz-adv-x="402" 
d="M131 198l13 109l-14 108h-85q-38 0 -38 38q0 35 38 35h77v103q0 52 65 52q63 0 63 -52v-103h81q36 0 36 -36q0 -37 -36 -37h-89l-13 -108l13 -109h86q39 0 39 -38t-39 -38h-77v-101q0 -53 -65 -53q-64 0 -64 53v101h-79q-36 0 -36 38t36 38h88z" />
    <glyph glyph-name="bullet" unicode="&#x2022;" horiz-adv-x="427" 
d="M353 214q0 -59 -84 -59h-104q-92 0 -92 59v99q0 62 92 62h103q85 0 85 -57v-104z" />
    <glyph glyph-name="ellipsis" unicode="&#x2026;" horiz-adv-x="639" 
d="M168 50q0 -49 -61 -49t-61 49q0 46 61 46t61 -46zM381 50q0 -49 -61 -49t-61 49q0 46 61 46t61 -46zM594 50q0 -49 -61 -49t-61 49q0 46 61 46t61 -46z" />
    <glyph glyph-name="perthousand" unicode="&#x2030;" horiz-adv-x="1446" 
d="M847 202q0 45 -81 45h-57q-92 0 -92 -53v-73q0 -48 93 -48h58q79 0 79 48v81zM349 524q0 43 -80 43h-56q-92 0 -92 -53v-73q0 -50 92 -50h57q79 0 79 50v83zM719 651q11 14 27 14q20 0 36.5 -16.5t16.5 -34.5q0 -16 -9 -25l-524 -585q-5 -8 -13 -10.5t-16 -2.5
q-19 0 -35.5 14.5t-16.5 35.5q0 6 2.5 13t7.5 12zM933 121q0 -121 -180 -121h-31q-187 0 -187 121v71q0 126 191 126h27q180 0 180 -125v-72zM437 443q0 -122 -182 -122h-31q-186 0 -186 122v69q0 126 190 126h27q182 0 182 -125v-70zM1317 202q0 45 -79 45h-58
q-91 0 -91 -53v-73q0 -48 92 -48h58q78 0 78 48v81zM1405 121q0 -121 -181 -121h-32q-186 0 -186 121v71q0 126 191 126h27q181 0 181 -125v-72z" />
    <glyph glyph-name="guilsinglleft" unicode="&#x2039;" horiz-adv-x="299" 
d="M218 461q12 9 27 10q17 0 28.5 -14t11.5 -31q0 -21 -18 -34l-148 -111l148 -109q11 -8 15 -17.5t4 -18.5q0 -17 -12 -30.5t-29 -13.5q-18 0 -27 9l-187 146q-19 15 -19 35q0 23 20 34z" />
    <glyph glyph-name="guilsinglright" unicode="&#x203a;" horiz-adv-x="299" 
d="M267 316q9 -8 14 -15.5t5 -18.5q0 -20 -19 -35l-188 -146q-11 -9 -25 -9q-17 0 -29.5 13.5t-12.5 30.5q0 21 19 36l148 109l-148 111q-11 8 -14.5 17t-3.5 17q0 19 12 31.5t29 12.5q6 -2 11.5 -3t12.5 -6z" />
    <glyph glyph-name="Euro" unicode="&#x20ac;" horiz-adv-x="795" 
d="M172 359v-90h317q32 0 32 -36q0 -33 -32 -33h-317v-37q0 -87 175 -87h392q34 0 34 -37q0 -39 -34 -39h-404q-259 0 -259 160v40h-24q-34 0 -34 34q0 35 34 35h24v90h-24q-34 0 -34 38q0 33 34 33h24v58q0 150 253 150h380q35 0 35 -37q0 -38 -35 -38h-377
q-160 0 -160 -75v-58h408q36 0 36 -36q0 -35 -36 -35h-408z" />
    <glyph glyph-name="trademark" unicode="&#x2122;" horiz-adv-x="949" 
d="M238 568v-285q0 -32 -39 -32q-41 0 -41 32v285h-75q-28 0 -28 33q0 29 28 29h225q29 0 29 -29q0 -33 -29 -33h-70zM895 283q0 -32 -41 -32q-38 0 -38 32v236l-111 -169q-19 -25 -55 -25q-39 0 -58 25l-109 167v-234q0 -32 -40 -32q-39 0 -39 32v304q0 46 45 46
q30 0 56 -29l145 -205l144 211q21 23 54 23q47 0 47 -48v-302z" />
    <glyph glyph-name="nonmarkingreturn" horiz-adv-x="285" 
 />
  </font>
</defs>
</svg>
